<svg width="372" height="372" viewBox="0 0 372 372" fill="none" xmlns="http://www.w3.org/2000/svg">
<path fill-rule="evenodd" clip-rule="evenodd" d="M202.834 219.666H219.667V236.5H202.834V219.666ZM219.667 236.5H236.501V253.333H219.667V236.5ZM219.667 253.333H236.501V270.166H219.667V253.333ZM253.334 253.333H270.167V270.166H253.334V253.333ZM253.334 270.166H270.167V287H253.334V270.166ZM202.834 253.333H219.667V270.166H202.834V253.333ZM236.501 253.333H253.334V270.166H236.501V253.333ZM236.501 270.166H253.334V287H236.501V270.166ZM287.001 253.333H303.834V270.166H287.001V253.333ZM287.001 236.5H303.834V253.333H287.001V236.5ZM303.834 219.666H320.667V236.5H303.834V219.666ZM270.167 253.333H287.001V270.166H270.167V253.333ZM270.167 270.166H287.001V287H270.167V270.166ZM253.334 287H270.167V303.833H253.334V287ZM236.501 287H253.334V303.833H236.501V287ZM270.167 287H287.001V303.833H270.167V287ZM287.001 287H303.834V303.833H287.001V287ZM253.334 303.833H270.167V320.666H253.334V303.833ZM219.667 303.833H236.501V320.666H219.667V303.833ZM236.501 303.833H253.334V320.666H236.501V303.833ZM202.834 303.833H219.667V320.666H202.834V303.833ZM202.834 320.666H219.667V337.5H202.834V320.666ZM219.667 337.5H236.501V354.333H219.667V337.5ZM236.501 337.5H253.334V354.333H236.501V337.5ZM270.167 337.5H287.001V354.333H270.167V337.5ZM287.001 337.5H303.834V354.333H287.001V337.5ZM270.167 303.833H287.001V320.666H270.167V303.833ZM287.001 303.833H303.834V320.666H287.001V303.833ZM303.834 287H320.667V303.833H303.834V287ZM303.834 270.166H320.667V287H303.834V270.166ZM303.834 320.666H320.667V337.5H303.834V320.666ZM303.834 303.833H320.667V320.666H303.834V303.833ZM320.667 287H337.501V303.833H320.667V287ZM320.667 270.166H337.501V287H320.667V270.166ZM337.501 320.666H354.334V337.5H337.501V320.666ZM337.501 287H354.334V303.833H337.501V287ZM337.501 303.833H354.334V320.666H337.501V303.833ZM303.834 253.333H320.667V270.166H303.834V253.333ZM202.834 270.166H219.667V287H202.834V270.166ZM186.001 270.166H202.834V287H186.001V270.166ZM186.001 287H202.834V303.833H186.001V287ZM219.667 287H236.501V303.833H219.667V287ZM169.167 287H186.001V303.833H169.167V287ZM202.834 287H219.667V303.833H202.834V287ZM169.167 303.833H186.001V320.666H169.167V303.833ZM169.167 320.666H186.001V337.5H169.167V320.666ZM169.167 0.833008H186.001V17.6663H169.167V0.833008ZM186.001 17.6663H202.834V34.4997H186.001V17.6663ZM169.167 51.333H186.001V68.1663H169.167V51.333ZM186.001 68.1663H202.834V84.9997H186.001V68.1663ZM169.167 84.9997H186.001V101.833H169.167V84.9997ZM186.001 84.9997H202.834V101.833H186.001V84.9997ZM186.001 101.833H202.834V118.666H186.001V101.833ZM186.001 118.666H202.834V135.5H186.001V118.666ZM169.167 135.5H186.001V152.333H169.167V135.5ZM186.001 135.5H202.834V152.333H186.001V135.5ZM169.167 152.333H186.001V169.166H169.167V152.333ZM0.833984 169.166H17.6673V186H0.833984V169.166ZM17.6673 186H34.5006V202.833H17.6673V186ZM51.334 169.166H68.1673V186H51.334V169.166ZM51.334 186H68.1673V202.833H51.334V186ZM68.1673 169.166H85.0006V186H68.1673V169.166ZM85.0006 186H101.834V202.833H85.0006V186ZM101.834 169.166H118.667V186H101.834V169.166ZM118.667 186H135.501V202.833H118.667V186ZM118.667 169.166H135.501V186H118.667V169.166ZM135.501 169.166H152.334V186H135.501V169.166ZM152.334 169.166H169.167V186H152.334V169.166ZM169.167 186H186.001V202.833H169.167V186ZM202.834 186H219.667V202.833H202.834V186ZM219.667 169.166H236.501V186H219.667V169.166ZM236.501 169.166H253.334V186H236.501V169.166ZM253.334 169.166H270.167V186H253.334V169.166ZM236.501 202.833H253.334V219.666H236.501V202.833ZM202.834 354.333H219.667V371.166H202.834V354.333ZM186.001 354.333H202.834V371.166H186.001V354.333ZM186.001 202.833H202.834V219.666H186.001V202.833ZM169.167 202.833H186.001V219.666H169.167V202.833ZM169.167 219.666H186.001V236.5H169.167V219.666ZM169.167 236.5H186.001V253.333H169.167V236.5ZM354.334 219.666H371.167V236.5H354.334V219.666ZM337.501 236.5H354.334V253.333H337.501V236.5ZM354.334 270.166H371.167V287H354.334V270.166ZM270.167 202.833H287.001V219.666H270.167V202.833ZM287.001 186H303.834V202.833H287.001V186ZM354.334 186H371.167V202.833H354.334V186ZM354.334 202.833H371.167V219.666H354.334V202.833ZM337.501 202.833H354.334V219.666H337.501V202.833ZM354.334 337.5H371.167V354.333H354.334V337.5ZM337.501 354.333H354.334V371.166H337.501V354.333ZM303.834 354.333H320.667V371.166H303.834V354.333ZM354.334 354.333H371.167V371.166H354.334V354.333Z" fill="white"/>
<path fill-rule="evenodd" clip-rule="evenodd" d="M236.501 17.6663H354.335V135.5H236.501V17.6663ZM17.668 17.6663H135.501V135.5H17.668V17.6663ZM17.668 236.5H135.501V354.333H17.668V236.5ZM287.001 68.1663H303.835V84.9996H287.001V68.1663ZM68.168 68.1663H85.0013V84.9996H68.168V68.1663ZM68.168 287H85.0013V303.833H68.168V287Z" stroke="white" stroke-width="2"/>
</svg>
