<svg width="55" height="55" viewBox="0 0 55 55" fill="none" xmlns="http://www.w3.org/2000/svg">
<path d="M27.5 55C42.6878 55 55 42.6878 55 27.5C55 12.3122 42.6878 0 27.5 0C12.3122 0 0 12.3122 0 27.5C0 42.6878 12.3122 55 27.5 55Z" fill="#CC9300"/>
<path d="M27.5 16C31.0898 16 34 13.0899 34 9.5C34 5.91015 31.0898 3 27.5 3C23.9101 3 21 5.91015 21 9.5C21 13.0899 23.9101 16 27.5 16Z" fill="#252525"/>
<path d="M43.5 26C47.0898 26 50 23.0899 50 19.5C50 15.9101 47.0898 13 43.5 13C39.9101 13 37 15.9101 37 19.5C37 23.0899 39.9101 26 43.5 26Z" fill="#252525"/>
<path d="M12.5 26C16.0898 26 19 23.0899 19 19.5C19 15.9101 16.0898 13 12.5 13C8.91015 13 6 15.9101 6 19.5C6 23.0899 8.91015 26 12.5 26Z" fill="#252525"/>
<path d="M43.5 44C47.0898 44 50 41.0899 50 37.5C50 33.9101 47.0898 31 43.5 31C39.9101 31 37 33.9101 37 37.5C37 41.0899 39.9101 44 43.5 44Z" fill="#252525"/>
<path d="M12.5 44C16.0898 44 19 41.0899 19 37.5C19 33.9101 16.0898 31 12.5 31C8.91015 31 6 33.9101 6 37.5C6 41.0899 8.91015 44 12.5 44Z" fill="#252525"/>
<path d="M27.5 52C31.0898 52 34 49.0899 34 45.5C34 41.9101 31.0898 39 27.5 39C23.9101 39 21 41.9101 21 45.5C21 49.0899 23.9101 52 27.5 52Z" fill="#252525"/>
<path d="M27.5 31C29.433 31 31 29.433 31 27.5C31 25.567 29.433 24 27.5 24C25.567 24 24 25.567 24 27.5C24 29.433 25.567 31 27.5 31Z" fill="#252525"/>
</svg>
