<svg width="34" height="34" viewBox="0 0 34 34" fill="none" xmlns="http://www.w3.org/2000/svg">
<path d="M29.75 14.1667H26.9166V5.66671H28.3333V2.83337H5.66665V5.66671H7.08331V14.1667H4.24998C3.87426 14.1667 3.51392 14.316 3.24825 14.5816C2.98257 14.8473 2.83331 15.2076 2.83331 15.5834V28.3334H31.1666V15.5834C31.1666 15.2076 31.0174 14.8473 30.7517 14.5816C30.486 14.316 30.1257 14.1667 29.75 14.1667ZM19.8333 25.5V19.8334H14.1666V25.5H9.91665V5.66671H24.0833V25.5H19.8333Z" fill="black"/>
<path d="M12.75 8.5H15.5833V11.3333H12.75V8.5ZM18.4167 8.5H21.25V11.3333H18.4167V8.5ZM12.75 14.1667H15.5833V17H12.75V14.1667ZM18.4167 14.1667H21.25V17H18.4167V14.1667Z" fill="white"/>
</svg>
