<svg width="38" height="38" viewBox="0 0 38 38" fill="none" xmlns="http://www.w3.org/2000/svg">
<path d="M9.12957 31.0613C9.12957 31.0613 8.07402 23.7779 14.4073 23.7779C16.092 24.9011 17.535 25.6774 19.1573 25.6743H19.0914C20.7138 25.6774 21.8928 24.2677 23.5775 23.1451C30.6043 23.1451 29.3303 31.0618 29.3303 31.0618" fill="#9B9B9A"/>
<path d="M19.3234 28.6091L20.5979 31.0073L23.9609 23.2949L27.3688 28.4582L21.4804 30.6379" fill="#D0CFCE"/>
<path d="M20.3231 30.4755C20.0075 31.0218 17.7418 31.0218 17.4262 30.4755L16.454 29.2036L14.6669 24.5908L18.8749 26.0158L22.8718 24.5908L21.137 29.2036L20.3231 30.4755Z" fill="white"/>
<path d="M34.6902 30.8676H26.5176V20.4165H34.5773C34.6396 20.4165 34.6902 20.4666 34.6902 20.5294V30.8676Z" fill="#D0CFCE"/>
<path d="M33.0485 32.1744H25.3387V22.172H31.0139C31.5535 22.172 32.071 22.3864 32.4526 22.7679C32.8342 23.1495 33.0485 23.667 33.0485 24.2066V32.1744Z" fill="white"/>
<path d="M17.6569 25.6156C17.6569 25.6156 17.0204 28.7934 18.8745 28.7934C20.7286 28.7934 20.0926 25.6156 20.0926 25.6156" fill="#3F3F3F"/>
<path d="M18.4807 28.9644C18.5198 28.8966 18.576 28.8404 18.6437 28.8013C18.7114 28.7622 18.7883 28.7416 18.8665 28.7416C18.9447 28.7416 19.0215 28.7622 19.0892 28.8013C19.1569 28.8404 19.2132 28.8966 19.2523 28.9644L19.8671 30.0289L20.8673 31.0755H16.8657L17.8663 30.0289L18.4807 28.9644Z" fill="#3F3F3F"/>
<path d="M18.4257 28.7933L17.1511 30.5059L14.1576 23.6897L12.0692 28.1674L17.0603 30.5059" fill="#D0CFCE"/>
<path d="M14.4475 9.91523C14.4475 9.91523 19.7971 14.1163 19.995 11.203C19.995 11.203 22.8107 13.2117 24.7545 13.2117C28.1497 13.2117 24.6853 6.62507 18.875 5.23173C17.2152 4.83485 13.6537 4.30548 13.6537 7.58562C13.6537 7.58562 9.63312 9.81865 12.955 14.2092L13.003 14.033C13.1687 12.4074 14.4475 9.91523 14.4475 9.91523Z" fill="#9B9B9A"/>
<path d="M14.4242 10.0764C13.5091 11.3906 12.9549 13.1074 12.9549 14.9858C12.9549 19.1172 15.6344 22.466 18.9394 22.466C22.2443 22.466 24.9238 19.1172 24.9238 14.9858C24.9238 14.3746 24.8647 13.7804 24.7544 13.2119C23.1737 13.0483 21.5872 12.3374 19.9949 11.2027C19.9115 13.1856 17.4721 12.0361 14.4242 10.0764Z" fill="#DADADA"/>
<path d="M12.9961 14.1064C12.9687 14.3987 12.9549 14.6921 12.9549 14.9857C12.9549 19.1171 15.6344 22.4658 18.9394 22.4658C22.2443 22.4658 24.9238 19.1171 24.9238 14.9857C24.9238 14.3745 24.8647 13.7802 24.7544 13.2118" stroke="black" stroke-miterlimit="10" stroke-linecap="round" stroke-linejoin="round"/>
<path d="M22.1061 14.2673C22.106 14.5473 21.9947 14.8158 21.7967 15.0138C21.5986 15.2117 21.33 15.3229 21.05 15.3228C20.77 15.3228 20.5015 15.2114 20.3035 15.0134C20.1055 14.8153 19.9944 14.5468 19.9944 14.2667C19.9945 14.1281 20.0218 13.9908 20.0749 13.8627C20.128 13.7346 20.2058 13.6183 20.3039 13.5202C20.4019 13.4222 20.5184 13.3445 20.6465 13.2915C20.7746 13.2384 20.9119 13.2111 21.0505 13.2112C21.1892 13.2112 21.3265 13.2386 21.4546 13.2917C21.5826 13.3447 21.699 13.4225 21.797 13.5206C21.895 13.6187 21.9728 13.7351 22.0258 13.8632C22.0788 13.9913 22.1061 14.1286 22.1061 14.2673Z" fill="black"/>
<path d="M17.8839 14.2673C17.8838 14.4059 17.8565 14.5432 17.8034 14.6713C17.7503 14.7994 17.6725 14.9157 17.5744 15.0138C17.4764 15.1118 17.3599 15.1895 17.2318 15.2426C17.1037 15.2956 16.9664 15.3229 16.8278 15.3228C16.6891 15.3228 16.5518 15.2954 16.4237 15.2424C16.2957 15.1893 16.1793 15.1115 16.0813 15.0134C15.9833 14.9153 15.9055 14.7989 15.8525 14.6708C15.7995 14.5427 15.7722 14.4054 15.7722 14.2667C15.7723 13.9867 15.8836 13.7182 16.0816 13.5202C16.2797 13.3223 16.5483 13.2111 16.8283 13.2112C17.1083 13.2113 17.3768 13.3226 17.5748 13.5206C17.7728 13.7187 17.8839 13.9872 17.8839 14.2673Z" fill="black"/>
<path d="M18.9392 19.5467C18.3312 19.5467 17.7232 19.3958 17.12 19.0939C17.0579 19.0629 17.0026 19.02 16.9572 18.9676C16.9117 18.9153 16.877 18.8545 16.8551 18.7887C16.8331 18.7229 16.8243 18.6535 16.8292 18.5843C16.8341 18.5151 16.8525 18.4476 16.8835 18.3856C16.9145 18.3236 16.9574 18.2682 17.0098 18.2228C17.0621 18.1773 17.1229 18.1426 17.1887 18.1207C17.2545 18.0987 17.3239 18.0899 17.3931 18.0948C17.4622 18.0997 17.5298 18.1182 17.5918 18.1491C18.4985 18.603 19.3799 18.603 20.2866 18.1491C20.4119 18.0866 20.5569 18.0763 20.6897 18.1207C20.7555 18.1426 20.8163 18.1773 20.8687 18.2228C20.921 18.2682 20.9639 18.3236 20.9949 18.3856C21.0259 18.4476 21.0443 18.5151 21.0492 18.5843C21.0541 18.6535 21.0453 18.7229 21.0234 18.7887C21.0014 18.8545 20.9667 18.9153 20.9213 18.9676C20.8758 19.02 20.8205 19.0629 20.7585 19.0939C20.1552 19.3958 19.5472 19.5467 18.9392 19.5467Z" fill="black"/>
<path d="M33.0485 32.1743H25.3387V22.3386H31.5802V23.4533H33.0485V32.1743Z" stroke="black" stroke-miterlimit="10" stroke-linecap="round" stroke-linejoin="round"/>
<path d="M27.0297 20.5109H34.8545V30.3471" stroke="black" stroke-miterlimit="10" stroke-linecap="round" stroke-linejoin="round"/>
<path d="M31.5801 22.3386L33.0484 23.4533" stroke="black" stroke-miterlimit="10" stroke-linecap="round" stroke-linejoin="round"/>
<path d="M26.8929 25.6156H31.3436" stroke="black" stroke-miterlimit="10" stroke-linecap="round" stroke-linejoin="round"/>
<path d="M26.8929 27.7773H31.3436" stroke="black" stroke-miterlimit="10" stroke-linecap="round" stroke-linejoin="round"/>
<path d="M26.8929 29.6688H31.3436" stroke="black" stroke-miterlimit="10" stroke-linecap="round" stroke-linejoin="round"/>
<path d="M17.6569 25.6156C17.6569 25.6156 17.0204 28.7934 18.8745 28.7934C20.7286 28.7934 20.0926 25.6156 20.0926 25.6156" stroke="black" stroke-width="2" stroke-miterlimit="10" stroke-linecap="round" stroke-linejoin="round"/>
<path d="M23.5917 29.3595L20.5623 30.509" stroke="black" stroke-width="2" stroke-miterlimit="10" stroke-linecap="round" stroke-linejoin="round"/>
<path d="M14.4471 9.91523C14.4471 9.91523 19.7966 14.1163 19.9946 11.203C19.9946 11.203 22.8102 13.2117 24.7541 13.2117C28.1492 13.2117 24.6849 6.62507 18.8746 5.23173C17.2147 4.83485 13.6533 4.30548 13.6533 7.58562C13.6533 7.58562 9.63269 9.81865 12.9545 14.2092L13.0026 14.033C13.1683 12.4074 14.4471 9.91523 14.4471 9.91523V9.91523Z" stroke="black" stroke-width="2" stroke-miterlimit="10" stroke-linecap="round" stroke-linejoin="round"/>
<path d="M8.87975 30.5508C8.87975 30.5508 7.8242 23.6897 14.1575 23.6897C15.8422 24.8128 17.2851 25.5886 18.9075 25.5855H18.8416C20.4639 25.5886 21.9069 24.8128 23.5916 23.6897" stroke="black" stroke-width="2" stroke-miterlimit="10" stroke-linecap="round" stroke-linejoin="round"/>
<path d="M18.4257 28.7933L17.1511 30.5059L14.1576 23.6897L12.0692 28.1674L17.0603 30.5059" stroke="black" stroke-width="2" stroke-miterlimit="10" stroke-linecap="round" stroke-linejoin="round"/>
<path d="M23.5915 23.6897L20.5979 30.5059L19.3234 28.7933" stroke="black" stroke-width="2" stroke-miterlimit="10" stroke-linecap="round" stroke-linejoin="round"/>
</svg>
