<svg width="28" height="33" viewBox="0 0 28 33" fill="none" xmlns="http://www.w3.org/2000/svg">
<path d="M2.94739 30.0666V27.6466C2.94739 24.9333 5.6737 22.7333 8.40002 22.7333C11.6421 25.4466 14.8842 25.4466 18.2 22.7333C20.9263 22.7333 23.6526 24.9333 23.6526 27.6466V30.0666" fill="#3F3F3F"/>
<path d="M6.77887 3.81335C6.77887 4.03335 16.5052 -1.17331 18.3473 4.84002C18.3473 4.84002 20.9262 6.08668 20.4104 10.34C20.3368 11.0734 20.3368 12.76 19.5999 13.4934L17.5368 8.28668C17.5368 8.28668 12.0841 10.34 8.39992 7.84669L6.70518 13.3467C6.70518 13.3467 6.04202 12.3934 5.96834 11.1467C5.96834 11.1467 5.6736 8.21335 6.26307 7.18669C6.41044 7.18669 7.51571 5.28002 6.77887 3.81335Z" fill="#3F3F3F"/>
<path d="M17.5367 8.2868C17.5367 8.2868 12.0841 10.3401 8.39991 7.8468L6.85254 12.8335C7.07359 17.0868 9.87359 20.5335 13.2631 20.5335C16.5052 20.5335 19.1578 17.4535 19.5999 13.4935L17.5367 8.2868Z" fill="#DADADA"/>
<path d="M19.6 11.4399V12.3199C19.6 16.8666 16.7263 20.6066 13.1895 20.6066C9.65262 20.6066 6.77893 16.8666 6.77893 12.3199V11.8066" stroke="black" stroke-miterlimit="10"/>
<path d="M6.77899 3.81335C6.77899 4.03335 16.5053 -1.17331 18.3474 4.84002C18.3474 4.84002 20.9264 6.08668 20.4106 10.34C20.3369 11.0734 20.3369 12.76 19.6 13.4934L17.5369 8.28668C17.5369 8.28668 12.0843 10.34 8.40004 7.84669L6.7053 13.3467C6.7053 13.3467 6.04214 12.3934 5.96846 11.1467C5.96846 11.1467 5.67372 8.21335 6.2632 7.18669C6.41057 7.18669 7.51583 5.28002 6.77899 3.81335V3.81335Z" stroke="black" stroke-width="2" stroke-miterlimit="10" stroke-linejoin="round"/>
<path d="M16.3578 12.98C16.3578 13.5667 15.9157 14.0067 15.3263 14.0067C14.7368 14.0067 14.2947 13.5667 14.2947 12.98C14.2947 12.3934 14.7368 11.9534 15.3263 11.9534C15.9157 11.9534 16.3578 12.3934 16.3578 12.98Z" fill="black"/>
<path d="M12.2316 12.98C12.2316 13.5667 11.7895 14.0067 11.2 14.0067C10.6106 14.0067 10.1685 13.5667 10.1685 12.98C10.1685 12.3934 10.6106 11.9534 11.2 11.9534C11.7895 11.9534 12.2316 12.3934 12.2316 12.98Z" fill="black"/>
<path d="M11.7158 17.16C12.6737 17.6734 13.8527 17.6734 14.8106 17.16" stroke="black" stroke-linecap="round" stroke-linejoin="round"/>
<path d="M2.94739 29.3333V27.6466C2.94739 24.9333 5.6737 22.7333 8.40002 22.7333C11.6421 25.4466 14.8842 25.4466 18.2 22.7333C20.9263 22.7333 23.6526 24.9333 23.6526 27.6466V29.3333" stroke="black" stroke-width="2" stroke-linecap="round" stroke-linejoin="round"/>
</svg>
