<?xml version="1.0" encoding="UTF-8"?>
<svg xmlns="http://www.w3.org/2000/svg" version="1.1" width="200" height="200" viewBox="0 0 200 200"><rect x="0" y="0" width="200" height="200" fill="#ffffff"/><g transform="scale(6.061)"><g transform="translate(0,0)"><path fill-rule="evenodd" d="M8 0L8 3L9 3L9 2L12 2L12 3L10 3L10 4L9 4L9 5L8 5L8 10L5 10L5 8L2 8L2 9L3 9L3 11L2 11L2 10L1 10L1 9L0 9L0 11L2 11L2 12L1 12L1 13L3 13L3 14L1 14L1 15L4 15L4 16L3 16L3 17L2 17L2 16L0 16L0 17L2 17L2 18L0 18L0 25L1 25L1 20L3 20L3 21L8 21L8 22L9 22L9 23L7 23L7 22L3 22L3 23L2 23L2 25L7 25L7 24L8 24L8 26L9 26L9 25L10 25L10 22L11 22L11 25L13 25L13 27L12 27L12 26L11 26L11 27L9 27L9 28L8 28L8 31L9 31L9 30L10 30L10 31L14 31L14 32L15 32L15 33L17 33L17 32L16 32L16 31L20 31L20 32L19 32L19 33L21 33L21 32L22 32L22 33L26 33L26 32L27 32L27 33L28 33L28 31L27 31L27 30L26 30L26 29L28 29L28 30L29 30L29 31L30 31L30 33L32 33L32 32L31 32L31 30L32 30L32 27L30 27L30 28L31 28L31 29L30 29L30 30L29 30L29 26L31 26L31 25L30 25L30 24L31 24L31 23L32 23L32 22L33 22L33 21L32 21L32 20L31 20L31 19L32 19L32 18L33 18L33 16L31 16L31 15L32 15L32 14L31 14L31 13L28 13L28 11L29 11L29 12L31 12L31 11L32 11L32 10L33 10L33 8L30 8L30 9L29 9L29 10L28 10L28 11L27 11L27 13L26 13L26 11L25 11L25 10L24 10L24 9L26 9L26 10L27 10L27 9L28 9L28 8L25 8L25 6L24 6L24 9L23 9L23 6L22 6L22 7L21 7L21 5L22 5L22 4L23 4L23 3L22 3L22 2L23 2L23 1L24 1L24 3L25 3L25 1L24 1L24 0L23 0L23 1L21 1L21 0L20 0L20 1L21 1L21 2L16 2L16 3L14 3L14 2L12 2L12 1L13 1L13 0L12 0L12 1L11 1L11 0L10 0L10 1L9 1L9 0ZM15 0L15 1L16 1L16 0ZM18 0L18 1L19 1L19 0ZM17 3L17 4L15 4L15 7L14 7L14 6L13 6L13 7L12 7L12 6L11 6L11 5L10 5L10 6L9 6L9 7L10 7L10 8L11 8L11 7L12 7L12 10L11 10L11 11L10 11L10 9L9 9L9 10L8 10L8 11L6 11L6 12L5 12L5 13L6 13L6 14L4 14L4 15L5 15L5 16L4 16L4 17L3 17L3 18L2 18L2 19L3 19L3 18L5 18L5 19L4 19L4 20L8 20L8 21L9 21L9 20L8 20L8 18L9 18L9 16L8 16L8 15L6 15L6 14L7 14L7 13L8 13L8 14L9 14L9 15L10 15L10 18L11 18L11 19L10 19L10 20L11 20L11 19L13 19L13 20L12 20L12 21L13 21L13 20L14 20L14 19L15 19L15 18L16 18L16 20L17 20L17 23L16 23L16 21L15 21L15 26L16 26L16 24L17 24L17 27L16 27L16 28L17 28L17 27L18 27L18 29L16 29L16 30L20 30L20 31L22 31L22 32L23 32L23 31L24 31L24 32L25 32L25 31L26 31L26 30L25 30L25 29L24 29L24 27L23 27L23 26L24 26L24 25L22 25L22 24L21 24L21 23L22 23L22 22L25 22L25 23L24 23L24 24L25 24L25 23L26 23L26 24L27 24L27 23L26 23L26 22L28 22L28 23L29 23L29 21L31 21L31 22L32 22L32 21L31 21L31 20L30 20L30 19L29 19L29 18L30 18L30 17L31 17L31 18L32 18L32 17L31 17L31 16L30 16L30 15L29 15L29 16L28 16L28 15L27 15L27 14L28 14L28 13L27 13L27 14L26 14L26 13L24 13L24 10L23 10L23 9L22 9L22 8L21 8L21 7L20 7L20 4L22 4L22 3L19 3L19 4L18 4L18 3ZM12 4L12 5L13 5L13 4ZM17 4L17 5L16 5L16 7L15 7L15 8L14 8L14 7L13 7L13 9L15 9L15 11L16 11L16 9L17 9L17 10L18 10L18 11L17 11L17 14L16 14L16 12L14 12L14 11L13 11L13 12L10 12L10 11L9 11L9 12L10 12L10 13L9 13L9 14L10 14L10 15L11 15L11 16L13 16L13 17L12 17L12 18L13 18L13 17L14 17L14 18L15 18L15 17L16 17L16 18L17 18L17 17L18 17L18 19L17 19L17 20L18 20L18 21L19 21L19 22L18 22L18 23L17 23L17 24L18 24L18 27L21 27L21 28L19 28L19 29L20 29L20 30L21 30L21 29L22 29L22 30L23 30L23 29L22 29L22 28L23 28L23 27L22 27L22 25L21 25L21 24L20 24L20 23L21 23L21 20L23 20L23 21L25 21L25 22L26 22L26 21L25 21L25 20L26 20L26 19L25 19L25 20L23 20L23 18L24 18L24 17L23 17L23 16L22 16L22 15L23 15L23 14L24 14L24 16L25 16L25 18L26 18L26 15L25 15L25 14L24 14L24 13L23 13L23 12L19 12L19 10L20 10L20 11L21 11L21 9L19 9L19 8L20 8L20 7L19 7L19 5L18 5L18 4ZM24 4L24 5L25 5L25 4ZM10 6L10 7L11 7L11 6ZM17 6L17 7L16 7L16 8L15 8L15 9L16 9L16 8L19 8L19 7L18 7L18 6ZM6 8L6 9L7 9L7 8ZM18 9L18 10L19 10L19 9ZM30 9L30 11L31 11L31 10L32 10L32 9ZM22 10L22 11L23 11L23 10ZM3 12L3 13L4 13L4 12ZM6 12L6 13L7 13L7 12ZM10 13L10 14L11 14L11 13ZM13 13L13 14L12 14L12 15L13 15L13 16L14 16L14 17L15 17L15 16L16 16L16 17L17 17L17 16L18 16L18 17L19 17L19 18L21 18L21 17L22 17L22 18L23 18L23 17L22 17L22 16L21 16L21 14L23 14L23 13L21 13L21 14L20 14L20 13L18 13L18 14L17 14L17 16L16 16L16 14L15 14L15 13ZM18 14L18 15L19 15L19 17L20 17L20 15L19 15L19 14ZM14 15L14 16L15 16L15 15ZM5 16L5 18L6 18L6 19L7 19L7 18L6 18L6 17L7 17L7 16ZM27 18L27 21L29 21L29 20L28 20L28 18ZM19 20L19 21L20 21L20 20ZM12 22L12 24L13 24L13 25L14 25L14 22ZM19 22L19 23L20 23L20 22ZM6 23L6 24L7 24L7 23ZM19 24L19 25L20 25L20 24ZM25 25L25 28L28 28L28 25ZM32 25L32 26L33 26L33 25ZM26 26L26 27L27 27L27 26ZM11 27L11 28L12 28L12 27ZM13 27L13 29L14 29L14 28L15 28L15 27ZM9 28L9 29L10 29L10 28ZM14 30L14 31L15 31L15 30ZM24 30L24 31L25 31L25 30ZM9 32L9 33L10 33L10 32ZM0 0L0 7L7 7L7 0ZM1 1L1 6L6 6L6 1ZM2 2L2 5L5 5L5 2ZM26 0L26 7L33 7L33 0ZM27 1L27 6L32 6L32 1ZM28 2L28 5L31 5L31 2ZM0 26L0 33L7 33L7 26ZM1 27L1 32L6 32L6 27ZM2 28L2 31L5 31L5 28Z" fill="#000000"/></g></g></svg>
