<svg width="12" height="12" viewBox="0 0 12 12" fill="none" xmlns="http://www.w3.org/2000/svg">
<path d="M11.6582 9.42666L8.94819 6.96266C8.82009 6.84623 8.65175 6.78414 8.47873 6.78948C8.3057 6.79483 8.14152 6.86721 8.02085 6.99133L6.42552 8.632C6.04152 8.55866 5.26952 8.318 4.47485 7.52533C3.68019 6.73 3.43952 5.956 3.36819 5.57466L5.00752 3.97866C5.1318 3.85808 5.20428 3.69388 5.20963 3.5208C5.21498 3.34772 5.15278 3.17936 5.03619 3.05133L2.57285 0.341997C2.45622 0.213568 2.29411 0.135666 2.12096 0.124836C1.94781 0.114007 1.77725 0.171102 1.64552 0.283997L0.198855 1.52466C0.0835955 1.64034 0.014801 1.7943 0.00552131 1.95733C-0.00447869 2.124 -0.195145 6.072 2.86619 9.13466C5.53685 11.8047 8.88219 12 9.80352 12C9.93819 12 10.0209 11.996 10.0429 11.9947C10.2059 11.9855 10.3597 11.9164 10.4749 11.8007L11.7149 10.3533C11.8282 10.222 11.8857 10.0516 11.8751 9.87846C11.8645 9.70533 11.7867 9.54319 11.6582 9.42666Z" fill="white"/>
</svg>
