<svg width="38" height="38" viewBox="0 0 38 38" fill="none" xmlns="http://www.w3.org/2000/svg">
<path d="M28.9549 31.0354C28.9549 31.0354 30.0105 23.6465 23.6771 23.6465C21.9925 24.7696 20.5495 25.5454 18.9271 25.5423H18.9931C17.3707 25.5454 15.9278 24.7696 14.2431 23.6465C7.90977 23.6465 8.96533 31.0354 8.96533 31.0354" fill="#3F3F3F"/>
<path d="M23.8193 6.41508L18.9057 6.89536L14.1188 6.43092L11.2477 6.1512L18.5732 4.81592L26.5585 6.1512L23.8193 6.41508Z" fill="#9B9B9A"/>
<path d="M23.8191 6.41528V10.6217C23.8191 10.6217 20.2725 10.4844 18.9689 12.015C17.6653 10.4844 14.1186 10.6217 14.1186 10.6217V6.43112L18.9055 6.89556L23.8191 6.41528V6.41528Z" fill="#3F3F3F"/>
<path d="M18.9836 27.1172H18.9261C17.2383 27.1009 15.7668 26.3446 13.9502 25.1328C13.8912 25.0949 13.8403 25.0457 13.8006 24.988C13.7608 24.9303 13.7329 24.8652 13.7186 24.7966C13.7042 24.728 13.7037 24.6573 13.717 24.5885C13.7303 24.5196 13.7571 24.4542 13.796 24.3958C13.8349 24.3375 13.885 24.2875 13.9434 24.2488C14.0018 24.21 14.0673 24.1833 14.1361 24.1701C14.205 24.157 14.2757 24.1577 14.3443 24.1722C14.4129 24.1867 14.4779 24.2147 14.5355 24.2546C16.1996 25.3645 17.5227 26.0543 18.9599 26.0622C20.3965 26.0548 21.7191 25.3645 23.3842 24.2546C23.4419 24.2147 23.5069 24.1867 23.5754 24.1722C23.644 24.1577 23.7148 24.157 23.7836 24.1701C23.8525 24.1833 23.918 24.21 23.9764 24.2488C24.0348 24.2875 24.0849 24.3375 24.1237 24.3958C24.1626 24.4542 24.1895 24.5196 24.2028 24.5885C24.2161 24.6573 24.2155 24.728 24.2012 24.7966C24.1868 24.8652 24.1589 24.9303 24.1192 24.988C24.0794 25.0457 24.0285 25.0949 23.9695 25.1328C22.1524 26.3446 20.681 27.1009 18.9936 27.1172H18.9831H18.9836Z" fill="white"/>
<path d="M14.0273 10.6072C13.6528 11.2693 13.3708 11.9796 13.1892 12.7183L13.1744 12.7547C13.1744 12.7547 15.2749 13.1685 17.376 11.1297L17.395 11.0758C15.8808 10.5502 14.0526 10.622 14.0526 10.622" fill="#3F3F3F"/>
<path d="M23.7565 10.6214C23.7565 10.6214 21.9578 10.5153 20.4183 11.0991L20.4331 11.1297C22.5336 13.1685 24.6342 12.7547 24.6342 12.7547L24.6289 12.7558C24.4476 12.0037 24.1625 11.2806 23.7818 10.6072" fill="#3F3F3F"/>
<path d="M24.5631 12.7654C24.1916 12.815 22.3148 12.9564 20.4327 11.1298L20.418 11.0992L20.4296 11.095C19.8543 11.3008 19.3265 11.5948 18.9687 12.0149C17.8767 10.7324 15.2194 10.6215 14.3839 10.6189C14.9787 10.6247 16.2723 10.6859 17.3949 11.076L17.3759 11.1298C15.4943 12.9559 13.617 12.815 13.2455 12.7654C13.0286 13.5551 12.9192 14.3705 12.9204 15.1895C12.9204 19.3204 15.5994 22.6696 18.9043 22.6696C22.2092 22.6696 24.8888 19.3204 24.8888 15.1895C24.8888 14.3397 24.7727 13.5254 24.5631 12.7654Z" fill="#DADADA"/>
<path d="M22.1358 14.2241C22.1357 14.5042 22.0244 14.7728 21.8263 14.9708C21.6282 15.1688 21.3595 15.28 21.0794 15.2799C20.7993 15.2798 20.5308 15.1685 20.3328 14.9704C20.1348 14.7723 20.0236 14.5036 20.0236 14.2235C20.0237 13.9435 20.135 13.6749 20.3331 13.4769C20.5312 13.2789 20.7999 13.1677 21.08 13.1677C21.3601 13.1678 21.6286 13.2791 21.8267 13.4772C22.0247 13.6753 22.1359 13.944 22.1358 14.2241" fill="black"/>
<path d="M17.9136 14.2241C17.9136 14.5042 17.8022 14.7728 17.6041 14.9708C17.406 15.1688 17.1374 15.28 16.8573 15.2799C16.5772 15.2798 16.3086 15.1685 16.1106 14.9704C15.9126 14.7723 15.8014 14.5036 15.8015 14.2235C15.8015 14.0849 15.8288 13.9475 15.8819 13.8194C15.935 13.6913 16.0129 13.5749 16.111 13.4769C16.209 13.3788 16.3255 13.3011 16.4536 13.248C16.5818 13.195 16.7191 13.1677 16.8578 13.1677C16.9965 13.1678 17.1338 13.1951 17.2619 13.2482C17.39 13.3013 17.5064 13.3791 17.6045 13.4772C17.7025 13.5753 17.7803 13.6918 17.8333 13.8199C17.8864 13.9481 17.9137 14.0854 17.9136 14.2241" fill="black"/>
<path d="M18.9686 19.5035C18.3611 19.5035 17.7531 19.3525 17.1494 19.0506C17.0873 19.0196 17.032 18.9767 16.9866 18.9243C16.9411 18.8719 16.9065 18.8111 16.8845 18.7453C16.8626 18.6795 16.8538 18.61 16.8588 18.5409C16.8637 18.4717 16.8822 18.4041 16.9132 18.3421C16.9442 18.2801 16.9871 18.2248 17.0395 18.1793C17.0919 18.1339 17.1527 18.0992 17.2185 18.0773C17.2843 18.0553 17.3538 18.0466 17.423 18.0515C17.4922 18.0564 17.5597 18.0749 17.6217 18.1059C18.5279 18.5598 19.4093 18.5598 20.316 18.1059C20.4413 18.0433 20.5863 18.033 20.7192 18.0773C20.8521 18.1216 20.9619 18.2168 21.0246 18.3421C21.0872 18.4674 21.0975 18.6124 21.0532 18.7453C21.0089 18.8782 20.9137 18.988 20.7884 19.0506C20.1846 19.3525 19.5766 19.5035 18.9686 19.5035Z" fill="black"/>
<path d="M24.3462 10.434C24.0453 9.89044 23.6917 9.39433 23.2906 8.96155V10.0963C23.1745 10.0963 23.0373 10.1015 22.8895 10.1121C23.1323 10.4288 23.3487 10.7771 23.5387 11.1465C24.0981 12.239 24.4253 13.5427 24.4253 14.9413C24.4253 18.7782 21.9764 21.8974 18.9681 21.8974C15.9598 21.8974 13.5109 18.7782 13.5109 14.9413C13.5109 13.5374 13.8381 12.2338 14.4028 11.1413C14.5928 10.7718 14.8092 10.4288 15.0467 10.1121C14.8989 10.1015 14.7617 10.0963 14.6456 10.0963V8.96155C14.2498 9.39433 13.8909 9.89044 13.59 10.434C12.8723 11.7165 12.4553 13.2682 12.4553 14.9413C12.4553 19.3588 15.3792 22.9529 18.9681 22.9529C22.5623 22.9529 25.4809 19.3588 25.4809 14.9413C25.4809 13.2682 25.0639 11.7165 24.3462 10.434V10.434Z" fill="black"/>
<path d="M11.2473 6.15125L14.1184 6.43097L18.9054 6.89541L23.819 6.41513L26.5581 6.15125" stroke="black" stroke-width="2" stroke-miterlimit="10" stroke-linecap="round" stroke-linejoin="round"/>
<path d="M19.3904 12.3342C19.3799 12.3394 19.3746 12.35 19.3693 12.3553C19.3007 12.4397 19.2163 12.4925 19.1213 12.5189C19.1001 12.5294 19.079 12.5347 19.0579 12.5347C19.0263 12.5453 18.9999 12.5453 18.9682 12.5453C18.9365 12.5453 18.9049 12.5453 18.8785 12.5347C18.8574 12.5347 18.8363 12.5294 18.8151 12.5189C18.745 12.5005 18.68 12.4661 18.6251 12.4186C18.5948 12.3945 18.5681 12.366 18.546 12.3342C17.6751 11.3525 15.4585 11.1467 14.4029 11.1414C14.3026 11.1414 14.2129 11.1467 14.139 11.1467C14.0685 11.1505 13.9979 11.1399 13.9316 11.1154C13.8653 11.0909 13.8048 11.053 13.7538 11.0042C13.7021 10.9553 13.661 10.8963 13.6328 10.831C13.6047 10.7657 13.5902 10.6953 13.5901 10.6242V6.15388C13.5901 5.85832 13.8276 5.6261 14.1179 5.6261C14.4082 5.6261 14.6457 5.85832 14.6457 6.15388V10.0964C14.7618 10.0964 14.899 10.1017 15.0468 10.1122C16.1235 10.1755 17.8757 10.413 18.9682 11.2944C19.116 11.4053 19.2479 11.5319 19.3693 11.6744C19.5329 11.8644 19.5382 12.1389 19.3904 12.3342V12.3342Z" fill="black"/>
<path d="M24.3463 6.15388V10.6242C24.3463 10.7667 24.2882 10.9039 24.1879 11.0042C24.0824 11.0992 23.9557 11.1519 23.7974 11.1519C23.7235 11.1467 23.6338 11.1467 23.5388 11.1467C22.4779 11.1467 20.256 11.3472 19.3904 12.3342C19.3799 12.3394 19.3746 12.35 19.3693 12.3553C19.3007 12.4397 19.2163 12.4925 19.1213 12.5189C19.1001 12.5294 19.079 12.5347 19.0579 12.5347C19.0263 12.5453 18.9999 12.5453 18.9682 12.5453C18.9365 12.5453 18.9049 12.5453 18.8785 12.5347C18.8574 12.5347 18.8363 12.5294 18.8152 12.5189C18.745 12.5005 18.68 12.4661 18.6252 12.4186C18.5948 12.3945 18.5681 12.366 18.546 12.3342C18.4734 12.2384 18.4359 12.1206 18.4398 12.0006C18.4436 11.8805 18.4886 11.7654 18.5671 11.6744C18.6885 11.5319 18.8204 11.4053 18.9682 11.2944C20.0607 10.413 21.8129 10.1755 22.8896 10.1122C23.0374 10.1017 23.1746 10.0964 23.2907 10.0964V6.15388C23.2907 5.85832 23.5282 5.6261 23.8185 5.6261C24.1088 5.6261 24.3463 5.85832 24.3463 6.15388V6.15388Z" fill="black"/>
<path d="M26.5581 6.1512L18.5729 4.81592L11.2473 6.1512" stroke="black" stroke-width="2" stroke-miterlimit="10" stroke-linecap="round" stroke-linejoin="round"/>
<path d="M11.2482 11.0833C11.1083 11.0833 10.974 11.0277 10.875 10.9287C10.7761 10.8297 10.7205 10.6955 10.7205 10.5555V6.26997C10.7205 6.12999 10.7761 5.99575 10.875 5.89677C10.974 5.79779 11.1083 5.74219 11.2482 5.74219C11.3882 5.74219 11.5225 5.79779 11.6214 5.89677C11.7204 5.99575 11.776 6.12999 11.776 6.26997V10.5555C11.776 10.6955 11.7204 10.8297 11.6214 10.9287C11.5225 11.0277 11.3882 11.0833 11.2482 11.0833Z" fill="black"/>
<path d="M10.1781 12.4449C10.079 12.445 9.98195 12.4172 9.89797 12.3647C9.81399 12.3121 9.74652 12.237 9.70327 12.1478C9.66003 12.0587 9.64277 11.9592 9.65348 11.8607C9.66418 11.7622 9.70242 11.6688 9.7638 11.591L10.8331 10.2293C10.9196 10.1192 11.0463 10.048 11.1853 10.0313C11.3243 10.0147 11.4643 10.0539 11.5743 10.1404C11.6844 10.2269 11.7557 10.3536 11.7723 10.4926C11.789 10.6316 11.7498 10.7716 11.6633 10.8817L10.5935 12.2433C10.5441 12.3063 10.481 12.3571 10.4091 12.3921C10.3371 12.427 10.2581 12.4451 10.1781 12.4449Z" fill="black"/>
<path d="M11.2482 13.2478C11.1083 13.2478 10.974 13.1922 10.875 13.0932C10.7761 12.9942 10.7205 12.86 10.7205 12.72V10.5561C10.7205 10.4161 10.7761 10.2819 10.875 10.1829C10.974 10.0839 11.1083 10.0283 11.2482 10.0283C11.3882 10.0283 11.5225 10.0839 11.6214 10.1829C11.7204 10.2819 11.776 10.4161 11.776 10.5561V12.72C11.776 12.86 11.7204 12.9942 11.6214 13.0932C11.5225 13.1922 11.3882 13.2478 11.2482 13.2478Z" fill="black"/>
<path d="M24.2217 13.3169C23.3804 13.3169 21.7474 13.0794 20.1298 11.5087C20.0794 11.4606 20.0391 11.403 20.011 11.3392C19.983 11.2755 19.9679 11.2068 19.9665 11.1372C19.9652 11.0675 19.9776 10.9983 20.0031 10.9335C20.0287 10.8687 20.0668 10.8096 20.1153 10.7596C20.1637 10.7095 20.2216 10.6696 20.2856 10.6421C20.3496 10.6146 20.4184 10.6 20.488 10.5992C20.5577 10.5983 20.6268 10.6113 20.6914 10.6373C20.756 10.6634 20.8148 10.7019 20.8645 10.7508C22.7233 12.5553 24.5251 12.2507 24.6001 12.2365C24.7372 12.2116 24.8787 12.2417 24.9938 12.3203C25.1088 12.399 25.1883 12.5198 25.215 12.6566C25.2415 12.7932 25.2128 12.9347 25.1351 13.0502C25.0574 13.1656 24.9372 13.2456 24.8006 13.2725C24.7727 13.2778 24.5616 13.3169 24.2217 13.3169V13.3169Z" fill="black"/>
<path d="M13.7167 13.3169C13.5226 13.3198 13.3287 13.305 13.1372 13.2726C13.0026 13.2432 12.8848 13.1623 12.809 13.0472C12.7332 12.9321 12.7054 12.7919 12.7316 12.6566C12.7578 12.5213 12.8359 12.4016 12.9492 12.3231C13.0624 12.2446 13.2019 12.2136 13.3378 12.2365C13.4233 12.2524 15.2204 12.55 17.0734 10.7508C17.1742 10.6547 17.3088 10.6023 17.4481 10.605C17.5873 10.6077 17.7198 10.6653 17.8168 10.7653C17.9137 10.8653 17.9672 10.9995 17.9656 11.1388C17.9639 11.2781 17.9073 11.411 17.8081 11.5087C16.1904 13.0789 14.5575 13.3169 13.7162 13.3169H13.7167Z" fill="black"/>
<path d="M28.9004 31.0348C28.8243 31.0349 28.7492 31.0185 28.68 30.9869C28.6108 30.9552 28.5494 30.909 28.4997 30.8513C28.4501 30.7937 28.4135 30.726 28.3925 30.6529C28.3715 30.5798 28.3665 30.503 28.3779 30.4278C28.3821 30.3978 28.8144 27.3984 27.2537 25.5844C26.4753 24.6793 25.3068 24.2053 23.7783 24.1753C22.0314 25.329 20.5964 26.0473 18.9618 26.07H18.8468C17.2107 26.0473 15.7772 25.329 14.0303 24.1753C12.5013 24.2053 11.3333 24.6793 10.5543 25.5844C8.99421 27.3979 9.42593 30.3978 9.43068 30.4278C9.4474 30.5641 9.4104 30.7014 9.32754 30.8108C9.24468 30.9202 9.12247 30.993 8.98683 31.0138C8.85119 31.0346 8.71278 31.0017 8.60095 30.9222C8.48912 30.8427 8.41266 30.7227 8.3878 30.5878C8.36563 30.4453 7.87427 27.087 9.74946 24.901C10.7644 23.7182 12.2575 23.1187 14.187 23.1187C14.2911 23.1187 14.3928 23.1496 14.4794 23.2073C16.144 24.3167 17.4666 25.007 18.9038 25.0144C20.3404 25.0076 21.6635 24.3167 23.3281 23.2073C23.4147 23.1493 23.5171 23.1187 23.621 23.1187C25.5506 23.1187 27.0432 23.7177 28.0581 24.901C29.9338 27.087 29.4419 30.4458 29.4203 30.5878C29.4011 30.7121 29.3381 30.8255 29.2427 30.9075C29.1473 30.9895 29.0257 31.0346 28.8999 31.0348H28.9004Z" fill="black"/>
</svg>
