<svg width="16" height="16" viewBox="0 0 16 16" fill="none" xmlns="http://www.w3.org/2000/svg">
<path d="M14.0975 12.3317C13.3801 12.9665 12.3405 13.4218 10.9786 13.6976C9.61663 13.9733 8.21313 14.054 6.76803 13.9395L4.02339 16V13.4244C3.11891 13.1434 2.41196 12.7792 1.90253 12.3317C1.29955 11.801 0.831709 11.0387 0.499025 10.0449C0.166342 9.05106 0 8.03642 0 7.00098C0 5.96553 0.166342 4.95089 0.499025 3.95707C0.831709 2.96325 1.30214 2.19837 1.91033 1.66244C2.51852 1.1265 3.38921 0.715447 4.52242 0.429268C5.65562 0.143089 6.81482 0 8 0C9.18519 0 10.3444 0.143089 11.4776 0.429268C12.6108 0.715447 13.4815 1.1265 14.0897 1.66244C14.6979 2.19837 15.1683 2.96325 15.501 3.95707C15.8337 4.95089 16 5.96553 16 7.00098C16 8.03642 15.8337 9.05106 15.501 10.0449C15.1683 11.0387 14.7005 11.801 14.0975 12.3317ZM9.96491 8.50732L10.9786 8.67902C10.8954 7.43024 10.4146 6.36358 9.53606 5.47902C8.65757 4.59447 7.59454 4.11057 6.34698 4.02732L6.51852 5.04195C7.41261 5.15642 8.18194 5.53626 8.82651 6.18146C9.47109 6.82667 9.85055 7.60195 9.96491 8.50732ZM6.69006 6.0878L6.87719 7.21171C7.29305 7.41984 7.59974 7.72683 7.79727 8.13268L8.92008 8.32C8.79532 7.76846 8.53021 7.29236 8.12476 6.89171C7.7193 6.49106 7.24107 6.22309 6.69006 6.0878ZM5.02144 7.00878V6.00976C5.02144 5.83285 4.95647 5.65593 4.82651 5.47902C4.69656 5.30211 4.5588 5.17463 4.41326 5.09659C4.26771 5.01854 4.15854 5.01073 4.08577 5.07317L3.36842 5.80683C2.96296 6.21268 2.90318 6.84488 3.18908 7.70341C3.47498 8.56195 4.02079 9.39447 4.82651 10.201C5.63223 11.0075 6.46394 11.5538 7.32164 11.84C8.17934 12.1262 8.80572 12.0663 9.20078 11.6605L9.93372 10.9268C10.0065 10.8644 10.0039 10.7577 9.92593 10.6068C9.84795 10.4559 9.7206 10.318 9.54386 10.1932C9.36712 10.0683 9.19038 10.0059 9.01365 10.0059H8.01559L7.4386 10.5054C6.98116 10.3805 6.41196 9.97724 5.73099 9.29561C5.05003 8.61398 4.64717 8.03902 4.52242 7.57073L5.02144 7.00878ZM6.01949 2.01366L6.17544 3.02829C7.21507 3.04911 8.17674 3.32228 9.06043 3.8478C9.94412 4.37333 10.6459 5.07577 11.1657 5.95512C11.6855 6.83447 11.961 7.79447 11.9922 8.83512L13.0058 9.00683C13.0058 8.05984 12.8213 7.15447 12.4522 6.29073C12.0832 5.42699 11.5867 4.68293 10.963 4.05854C10.3392 3.43415 9.59584 2.93724 8.73294 2.5678C7.87005 2.19837 6.96556 2.01366 6.01949 2.01366Z" fill="white"/>
</svg>
