<svg width="17" height="16" viewBox="0 0 17 16" fill="none" xmlns="http://www.w3.org/2000/svg">
<path d="M15.8003 3.69988C13.4003 -0.000122309 8.50027 -1.10012 4.70027 1.19988C1.00027 3.49988 -0.199732 8.49988 2.20027 12.1999L2.40027 12.4999L1.60027 15.4999L4.60027 14.6999L4.90027 14.8999C6.20027 15.5999 7.60027 15.9999 9.00027 15.9999C10.5003 15.9999 12.0003 15.5999 13.3003 14.7999C17.0003 12.3999 18.1003 7.49988 15.8003 3.69988ZM13.7003 11.3999C13.3003 11.9999 12.8003 12.3999 12.1003 12.4999C11.7003 12.4999 11.2003 12.6999 9.20027 11.8999C7.50027 11.0999 6.10027 9.79988 5.10027 8.29988C4.50027 7.59988 4.20027 6.69988 4.10027 5.79988C4.10027 4.99988 4.40027 4.29988 4.90027 3.79988C5.10027 3.59988 5.30027 3.49988 5.50027 3.49988H6.00027C6.20027 3.49988 6.40027 3.49988 6.50027 3.89988C6.70027 4.39988 7.20027 5.59988 7.20027 5.69988C7.30027 5.79988 7.30027 5.99988 7.20027 6.09988C7.30027 6.29988 7.20027 6.49988 7.10027 6.59988C7.00027 6.69988 6.90027 6.89988 6.80027 6.99988C6.60027 7.09988 6.50027 7.29988 6.60027 7.49988C7.00027 8.09988 7.50027 8.69988 8.00027 9.19988C8.60027 9.69988 9.20027 10.0999 9.90027 10.3999C10.1003 10.4999 10.3003 10.4999 10.4003 10.2999C10.5003 10.0999 11.0003 9.59988 11.2003 9.39988C11.4003 9.19988 11.5003 9.19988 11.7003 9.29988L13.3003 10.0999C13.5003 10.1999 13.7003 10.2999 13.8003 10.3999C13.9003 10.6999 13.9003 11.0999 13.7003 11.3999Z" fill="white"/>
</svg>
