<svg width="28" height="28" viewBox="0 0 28 28" fill="none" xmlns="http://www.w3.org/2000/svg">
<path d="M24.6311 14.6126L24.1061 6.6938L20.4748 8.92505C18.6811 8.6188 18.1998 8.6188 16.7998 7.9188C15.9686 7.52505 14.9186 7.78755 14.3936 8.0938C13.6061 7.26255 8.48734 8.48755 7.91859 8.75005C6.38734 8.31255 4.11234 6.5188 4.11234 6.5188L3.36859 15.4876L4.37484 15.7501C4.46234 16.0563 4.72484 16.8001 4.72484 16.8001C3.76234 18.0251 4.89984 19.4688 5.99359 18.9876C5.51234 20.2126 6.78109 21.3501 7.78734 20.5626C7.65609 21.7001 8.83734 22.5313 9.71234 21.7438C9.31859 23.1001 10.8498 24.1063 11.7686 23.0126C12.4248 23.4501 13.0373 23.8001 13.5623 23.9751C14.4811 24.3688 15.4873 23.4938 15.3123 22.4001C16.3623 23.6251 17.9373 22.4438 17.5873 21.0876C18.7686 22.0063 20.2123 20.4751 19.4686 19.1188C20.7811 19.8626 21.9186 17.8501 20.6498 16.5376L24.6311 14.6126Z" fill="#DADADA"/>
<path d="M6.08109 15.8813C6.73734 16.1876 7.17484 17.1938 6.47484 18.0688L6.16859 18.4188C5.81859 18.8563 5.46859 18.9876 5.11859 18.9876C5.38109 19.1188 5.68734 19.1188 5.99359 18.9876C6.03734 18.8563 6.12484 18.6813 6.25609 18.5501L6.56234 18.2001C6.73734 17.9813 6.95609 17.8063 7.13109 17.7188C7.48109 16.8001 6.86859 15.9251 6.08109 15.8813Z" fill="#9C9C9C"/>
<path d="M11.1123 20.2126C11.8123 20.3876 12.3373 21.3063 11.8123 22.3126L11.5498 22.7063C11.2873 23.1876 10.9373 23.4063 10.5873 23.4501C11.0686 23.5813 11.5936 23.4063 11.9436 22.7501L12.2061 22.3563C12.8186 21.1313 11.9873 20.1251 11.1123 20.2126Z" fill="#9C9C9C"/>
<path d="M8.00596 19.8626L8.70596 18.7689C8.66221 18.1564 8.13721 17.6314 7.61221 17.5876C8.26846 17.8939 8.70596 18.9001 8.00596 19.7751L7.69971 20.1251C7.34971 20.5626 6.99971 20.6939 6.60596 20.6939C6.95596 20.8689 7.34971 20.8251 7.74346 20.5626C7.78721 20.3439 7.87471 20.0814 8.00596 19.8626Z" fill="#9C9C9C"/>
<path d="M9.88734 17.8938C10.5873 18.1126 11.0686 19.0751 10.4561 20.0376L9.62484 21.3501C9.31859 21.8313 8.96859 22.0063 8.61859 22.0063C9.05609 22.1376 9.62484 22.0063 10.0186 21.3938L10.8498 20.0813C11.5498 18.9438 10.7623 17.8501 9.88734 17.8938Z" fill="#9C9C9C"/>
<path d="M15.7062 18.9877C15.75 18.9877 16.275 18.9002 16.45 18.9002C15.7937 18.2439 14.7437 18.7689 14.1312 18.4189C14.5687 19.1627 15.4875 18.9877 15.575 18.9877L16.625 20.3439C17.5 21.4377 16.8 22.7064 15.8812 22.8377C16.8437 23.1439 17.8062 22.1377 17.5 21.0439C17.4562 21.0002 15.7062 18.9877 15.7062 18.9877Z" fill="#9C9C9C"/>
<path d="M16.7562 16.4501C16.7562 16.4501 17.4125 16.3189 17.9812 16.3189C17.325 15.7939 16.3187 16.2751 15.6625 15.8376C15.925 16.4064 16.4937 16.4064 16.6687 16.4064L18.6812 18.7251C19.6 19.7751 18.9437 21.0439 18.025 21.2626C19.075 21.5689 20.0812 20.2126 19.425 19.0314C18.9875 18.9001 16.7562 16.4501 16.7562 16.4501Z" fill="#9C9C9C"/>
<path d="M15.356 21.4814C14.6997 20.9564 13.781 21.3501 13.3872 21.0876C13.606 21.7001 14.4372 21.5689 14.481 21.5689C15.2247 22.7064 14.4372 23.8876 13.5185 23.9751C14.4372 24.3689 15.4435 23.4939 15.2685 22.4001C15.2247 22.3564 14.6122 21.5689 14.6122 21.5689C14.6997 21.5251 15.181 21.4814 15.356 21.4814Z" fill="#9C9C9C"/>
<path d="M24.15 13.8688C24.15 13.8688 23.4062 15.4001 20.5188 16.2313C20.125 15.7501 19.2937 14.7876 18.3313 13.9563C18.9437 13.8251 19.25 13.3438 19.7312 13.2563C19.5562 13.0813 18.9437 13.1688 18.4625 13.3438C17.5875 13.6501 15.575 12.2501 15.575 12.2501L13.9125 12.4688C12.7312 13.6063 10.1937 14.2188 10.0625 12.4688C9.975 11.2438 12.6437 10.4126 13.475 9.6251C14.525 8.61885 15.4437 7.3501 17.15 8.2251C18.55 8.9251 19.1187 8.88135 21.0437 9.23135C21.7 9.3626 22.1375 9.66885 22.6187 10.3251C22.225 9.40635 21.6562 9.0126 20.9563 8.88135L24.0187 7.4376L24.0625 6.69385L20.4312 8.7501C18.7687 8.4876 18.1562 8.4876 16.8 7.83135C15.925 7.39385 15.225 7.5251 14.6562 7.8751C13.6062 7.2626 12.9937 7.39385 12.6 7.48135C11.375 7.8751 9.40625 7.91885 7.65625 8.61885C7.9625 8.70635 8.26875 8.79385 8.4875 8.79385C10.1937 8.26885 11.9875 8.3126 12.8187 8.00635C13.0812 7.91885 13.6063 7.91885 14.175 8.2251C13.825 8.53135 13.5187 8.88135 13.1687 9.23135C12.3375 10.0188 9.8 11.1563 9.975 12.6001C10.0625 13.3001 11.025 15.1376 14.2187 13.0813L15.575 12.9063C15.575 12.9063 18.0687 14.0876 20.3875 16.8001C21.3062 17.8501 20.7375 18.9876 19.8187 19.2501C21 19.4688 22.0062 17.8063 20.8687 16.6688L23.625 15.1813L24.15 13.8688Z" fill="#9C9C9C"/>
<path d="M23.3625 7.13135L24.8063 14.6126L23.625 15.1376C23.0125 13.5188 22.0938 9.6251 22.3125 7.74385L23.3625 7.13135Z" fill="#9B9B9A"/>
<path d="M4.85638 16.625C4.63763 16.1 4.50638 15.4 4.50638 15.4L3.41263 14.6562L3.32513 15.4875L4.28763 15.75C4.41888 16.1875 4.55013 16.5375 4.72513 16.8L4.85638 16.625Z" fill="#9C9C9C"/>
<path d="M2.66888 15.3563L5.03138 7.17505L6.12513 7.9188C6.30013 9.1438 4.28763 14.7438 3.54388 15.575L2.66888 15.3563Z" fill="#9B9B9A"/>
<path d="M23.3188 7.0874C22.9688 7.30615 24.2376 14.8749 24.7626 14.6562C26.4251 13.9124 27.1688 13.6937 27.1688 13.6937V4.68115C27.1251 4.68115 26.1188 5.4249 23.3188 7.0874Z" fill="black"/>
<path d="M0.875 3.9375V15.0938C0.875 15.0938 1.6625 15.225 2.66875 15.4438C3.2375 15.575 5.29375 7.35 5.1625 7.21875C3.675 6.2125 0.875 3.9375 0.875 3.9375Z" fill="black"/>
</svg>
