<svg width="38" height="38" viewBox="0 0 38 38" fill="none" xmlns="http://www.w3.org/2000/svg">
<path d="M7.32871 27.4956H5.71582V8.92676H32.0709V27.4956H29.9144" fill="#3F3F3F"/>
<path d="M28.4366 31.139C28.4366 31.139 29.8616 23.6772 23.5283 23.6772C21.8436 24.7956 20.4002 25.5688 18.7783 25.5651H18.8437C17.2219 25.5688 15.7784 24.7956 14.0937 23.6772C7.76042 23.6772 8.81597 31.1384 8.81597 31.1384" fill="#3F3F3F"/>
<path d="M23.5282 23.9423L24.8846 28.7134L21.9184 28.5867L21.9659 31.1148L18.8626 30.2703L18.9101 30.2545L18.8626 30.1859L23.5282 23.9423Z" fill="#3F3F3F"/>
<path d="M23.4758 23.8634L23.5285 23.9426L18.863 30.1862L14.1921 23.9426L14.2766 23.8159C15.9021 24.8979 17.3113 25.642 18.8788 25.6579H18.9421C20.4885 25.642 21.8766 24.919 23.4758 23.8634Z" fill="#D0CFCE"/>
<path d="M18.8626 30.1859L18.8098 30.2545L18.8626 30.2703L15.754 31.1148L15.8015 28.5867L12.8354 28.7134L14.1918 23.9423L18.8626 30.1859Z" fill="#3F3F3F"/>
<path d="M26.6525 11.249C26.3411 9.95594 25.2591 8.40955 22.6836 6.7101C19.7914 4.62538 15.4372 5.23233 14.2391 6.7576C14.0148 7.06938 13.8964 7.44492 13.9014 7.82899L13.6586 7.83427C10.228 11.4707 12.5555 16.1257 12.9408 15.1757L12.9883 15.1282C14.4925 13.6609 14.8672 10.072 14.8672 10.072L14.92 10.0193C16.0019 11.1593 18.3928 12.2095 24.3197 11.6818V11.687C24.5203 12.1884 24.6786 12.7215 24.7894 13.2862C24.9003 13.8509 24.9583 14.4473 24.9583 15.0595V15.1704L25.1853 15.1757C25.1853 15.1757 27.2383 13.6504 26.6525 11.249Z" fill="#3F3F3F"/>
<path d="M24.8946 15.0612C24.8946 13.8558 24.6666 12.7174 24.2613 11.7093C20.3293 12.073 15.9023 11.6861 14.6927 9.75391C14.6082 11.5668 14.1406 13.1702 12.9262 15.0612C12.9262 19.1922 15.6052 22.5414 18.9102 22.5414C22.2151 22.5414 24.8952 19.1922 24.8952 15.0612H24.8946Z" fill="#DADADA"/>
<path d="M14.5508 8.39709C14.6774 8.71904 14.8358 9.08848 15.126 9.45265H13.8699C13.7327 9.19932 13.6377 8.96182 13.5585 8.76654C13.3844 8.99348 13.2366 9.22571 13.1099 9.45265H6.24354V26.4946H7.33077C7.62104 26.4946 7.85854 26.7268 7.85854 27.0224C7.85854 27.3126 7.62104 27.5501 7.33077 27.5501H5.71577C5.42549 27.5501 5.18799 27.3126 5.18799 27.0224V8.92487C5.18799 8.63459 5.42549 8.39709 5.71577 8.39709H14.5508Z" fill="black"/>
<path d="M32.6006 8.92487V27.0224C32.6006 27.3126 32.3631 27.5501 32.0728 27.5501H30.7059C30.4156 27.5501 30.1781 27.3126 30.1781 27.0224C30.1781 26.7268 30.4156 26.4946 30.7059 26.4946H31.545V9.45265H25.0956C24.8053 9.09904 24.457 8.75071 24.0506 8.39709H32.0728C32.3631 8.39709 32.6006 8.63459 32.6006 8.92487Z" fill="black"/>
<path d="M22.1418 14.3403C22.1418 14.4789 22.1144 14.6162 22.0613 14.7443C22.0082 14.8724 21.9304 14.9887 21.8324 15.0868C21.7343 15.1848 21.6179 15.2625 21.4898 15.3156C21.3617 15.3686 21.2244 15.3959 21.0857 15.3958C20.9471 15.3958 20.8098 15.3684 20.6817 15.3153C20.5536 15.2623 20.4372 15.1845 20.3392 15.0864C20.2412 14.9883 20.1634 14.8719 20.1104 14.7438C20.0574 14.6157 20.0301 14.4784 20.0302 14.3397C20.0302 14.0597 20.1415 13.7912 20.3396 13.5932C20.5376 13.3953 20.8062 13.2841 21.0862 13.2842C21.3663 13.2842 21.6348 13.3956 21.8327 13.5936C22.0307 13.7917 22.1419 14.0602 22.1418 14.3403Z" fill="black"/>
<path d="M17.9195 14.3403C17.9195 14.4789 17.8921 14.6162 17.839 14.7443C17.7859 14.8724 17.7081 14.9887 17.6101 15.0868C17.512 15.1848 17.3956 15.2625 17.2675 15.3156C17.1394 15.3686 17.0021 15.3959 16.8634 15.3958C16.7248 15.3958 16.5875 15.3684 16.4594 15.3153C16.3313 15.2623 16.2149 15.1845 16.1169 15.0864C16.0189 14.9883 15.9412 14.8719 15.8881 14.7438C15.8351 14.6157 15.8078 14.4784 15.8079 14.3397C15.8079 14.0597 15.9192 13.7912 16.1173 13.5932C16.3153 13.3953 16.5839 13.2841 16.8639 13.2842C17.144 13.2842 17.4125 13.3956 17.6104 13.5936C17.8084 13.7917 17.9196 14.0602 17.9195 14.3403Z" fill="black"/>
<path d="M18.975 19.6191C18.367 19.6191 17.759 19.4682 17.1558 19.1663C17.0932 19.1356 17.0374 19.0929 16.9914 19.0405C16.9454 18.9882 16.9103 18.9273 16.888 18.8613C16.8657 18.7953 16.8567 18.7255 16.8615 18.6561C16.8663 18.5866 16.8848 18.5187 16.9159 18.4564C16.947 18.3941 16.9902 18.3386 17.0429 18.293C17.0956 18.2475 17.1568 18.2128 17.2229 18.191C17.2891 18.1692 17.3589 18.1608 17.4284 18.1661C17.4978 18.1714 17.5655 18.1904 17.6276 18.2221C18.5343 18.676 19.4157 18.676 20.3224 18.2221C20.4477 18.1595 20.5927 18.1493 20.7255 18.1936C20.7913 18.2156 20.8521 18.2503 20.9045 18.2957C20.9568 18.3412 20.9997 18.3965 21.0307 18.4585C21.0617 18.5205 21.0802 18.5881 21.085 18.6572C21.0899 18.7264 21.0811 18.7959 21.0592 18.8616C21.0372 18.9274 21.0025 18.9882 20.9571 19.0406C20.9116 19.0929 20.8563 19.1358 20.7943 19.1668C20.191 19.4682 19.583 19.6191 18.975 19.6191Z" fill="black"/>
<path d="M25.4122 13.8807C25.4122 14.1762 25.1747 14.4085 24.8844 14.4085H23.85V15.0629C23.85 16.1765 22.9475 17.079 21.8391 17.079H20.7783C19.9603 17.079 19.2583 16.5882 18.9416 15.8915C18.7812 16.2444 18.5229 16.5439 18.1973 16.7544C17.8717 16.9649 17.4926 17.0775 17.105 17.079H16.0441C15.5094 17.079 14.9966 16.8666 14.6185 16.4885C14.2404 16.1104 14.028 15.5976 14.028 15.0629V14.4085H13.6639C13.551 14.4085 13.4412 14.372 13.3508 14.3045C13.2605 14.2369 13.1944 14.142 13.1625 14.0337C13.2839 13.8332 13.3947 13.6115 13.4897 13.3846C13.5425 13.3635 13.6005 13.3529 13.6639 13.3529H14.5558C14.6958 13.3529 14.83 13.4085 14.929 13.5075C15.028 13.6065 15.0836 13.7407 15.0836 13.8807V15.0629C15.0836 15.5907 15.5164 16.0235 16.0441 16.0235H17.105C17.6328 16.0235 18.0603 15.5907 18.0603 15.0629V14.4824C18.0603 14.1921 18.2978 13.9546 18.588 13.9546H19.29C19.5855 13.9546 19.8178 14.1921 19.8178 14.4824V15.0629C19.8178 15.5907 20.2505 16.0235 20.7783 16.0235H21.8391C22.3669 16.0235 22.7944 15.5907 22.7944 15.0629V13.8807C22.7944 13.5904 23.0319 13.3529 23.3222 13.3529H24.8844C25.1747 13.3529 25.4122 13.5904 25.4122 13.8807Z" fill="black"/>
<path d="M12.9884 15.0601V15.1287C13.0201 19.2243 15.6853 22.5387 18.9734 22.5387C22.2456 22.5387 24.9109 19.2454 24.9584 15.171V15.0601C24.9584 14.4479 24.9003 13.8515 24.7895 13.2868C24.6787 12.7221 24.5203 12.189 24.3198 11.6876" stroke="black" stroke-miterlimit="10" stroke-linecap="round" stroke-linejoin="round"/>
<path d="M25.5023 15.6012C25.4073 15.6698 25.2965 15.7015 25.1856 15.7015C25.0273 15.7015 24.8637 15.6329 24.7634 15.4904C24.5892 15.2581 24.6367 14.9256 24.869 14.7515C24.9323 14.704 26.2306 13.7065 26.2306 12.1073C26.2306 11.8751 26.2042 11.627 26.1409 11.3737C25.9931 10.7404 25.6395 10.0965 25.0959 9.45259C24.8056 9.09897 24.4573 8.75064 24.0509 8.39703C23.5759 7.98009 23.0217 7.56314 22.3937 7.15147C19.7337 5.23564 15.6962 5.75814 14.6565 7.08286C14.5087 7.2887 14.4242 7.55259 14.4295 7.82175C14.4295 7.98536 14.4612 8.15953 14.5192 8.30731C14.5298 8.33897 14.5404 8.36536 14.5509 8.39703C14.6776 8.71897 14.8359 9.08842 15.1262 9.45259C15.179 9.5212 15.237 9.58453 15.3004 9.65314C16.6356 11.0623 19.6598 11.569 24.2726 11.1573C24.4942 11.1362 24.7159 11.1151 24.9481 11.094L25.0695 11.0834C25.3492 11.057 25.6131 11.2681 25.6448 11.5584C25.658 11.6977 25.6154 11.8365 25.5264 11.9444C25.4373 12.0522 25.309 12.1203 25.1698 12.1337L25.0484 12.1443C24.8162 12.1706 24.584 12.1918 24.3623 12.2076C20.0187 12.5981 17.0315 12.2023 15.2687 10.9937C14.679 10.6073 14.1976 10.0769 13.8701 9.45259C13.7329 9.19925 13.6379 8.96175 13.5587 8.76648C13.5534 8.74009 13.5429 8.71897 13.5323 8.69259C13.4954 8.59759 13.469 8.49731 13.4479 8.39703C13.3951 8.20703 13.374 8.01703 13.374 7.82703C13.374 7.67397 13.3845 7.52092 13.4162 7.37314C13.4742 7.04592 13.6062 6.72925 13.812 6.44953C15.1631 4.72897 19.8023 3.98481 22.9953 6.28064C24.0456 6.97203 24.9059 7.67925 25.5709 8.39703C25.8981 8.74536 26.1778 9.09897 26.4101 9.45259C26.7795 10.0068 27.0328 10.5662 27.1648 11.1256C27.8245 13.8331 25.5973 15.5273 25.5023 15.6012Z" fill="black"/>
<path d="M14.9201 9.54772C14.8512 9.53954 14.7815 9.54531 14.7149 9.56468C14.6484 9.58405 14.5864 9.61663 14.5327 9.66046C14.479 9.7043 14.4347 9.7585 14.4024 9.81983C14.3701 9.88116 14.3505 9.94837 14.3448 10.0174C14.3448 10.0227 14.3395 10.0649 14.3289 10.1494C14.2709 10.5927 14.0387 12.118 13.4898 13.3847C13.3948 13.6116 13.2839 13.8333 13.1626 14.0338C13.0517 14.2238 12.9303 14.4033 12.7984 14.5616C12.6242 14.2186 12.4078 13.5905 12.3551 12.7619C12.297 11.8805 12.4078 10.6824 13.1098 9.45272C13.3198 9.07296 13.5731 8.71875 13.8645 8.39716C13.9226 8.32855 13.9806 8.26522 14.0439 8.19661C14.2445 7.9855 14.2339 7.653 14.0228 7.45244C13.943 7.37688 13.8412 7.32853 13.7322 7.31431C13.6232 7.30009 13.5125 7.32073 13.4159 7.37328C13.3622 7.39682 13.3137 7.43092 13.2734 7.47355C12.9884 7.77439 12.7403 8.08578 12.5239 8.39716C12.2812 8.7455 12.0806 9.09911 11.9223 9.45272C10.9195 11.6008 11.2678 13.7172 11.7587 14.8255C12.0489 15.4905 12.3973 15.8283 12.7984 15.8283H12.8089C13.0412 15.8283 13.247 15.7016 13.3737 15.4905C13.6217 15.2477 13.8381 14.9574 14.0281 14.6355C14.2709 14.2397 14.4662 13.8016 14.6351 13.3583C14.957 12.498 15.1523 11.6166 15.2684 10.9938C15.3528 10.503 15.3898 10.1705 15.3951 10.1283C15.4214 9.838 15.2103 9.57939 14.9201 9.54772Z" fill="black"/>
<path d="M8.91436 30.6244C8.91436 30.6244 7.85881 23.7633 14.1921 23.7633C14.2185 23.7844 14.2502 23.8002 14.2766 23.8161C15.9021 24.898 17.3113 25.6422 18.8788 25.658H18.9421C20.4885 25.6422 21.8766 24.9191 23.4757 23.8636C23.5285 23.8319 23.576 23.8003 23.6288 23.7633C25.7346 23.7633 27.0224 24.5233 27.8088 25.5366L28.2205 26.2016" stroke="black" stroke-width="2" stroke-miterlimit="10" stroke-linecap="round" stroke-linejoin="round"/>
<path d="M18.8626 30.1859L18.9101 30.2545L18.8626 30.2703L15.754 31.1148L15.8015 28.5867L12.8354 28.7134L14.1918 23.9423L18.8626 30.1859Z" stroke="black" stroke-width="2" stroke-miterlimit="10" stroke-linecap="round" stroke-linejoin="round"/>
<path d="M18.863 30.1859L18.8102 30.2545L18.863 30.2703L21.9663 31.1148L21.9188 28.5867L24.8849 28.7134L23.5285 23.9423L18.863 30.1859Z" stroke="black" stroke-width="2" stroke-miterlimit="10" stroke-linecap="round" stroke-linejoin="round"/>
<path d="M27.9957 31.008C27.9324 31.008 27.8698 30.9944 27.8121 30.9682C27.7545 30.942 27.7031 30.9038 27.6614 30.8561C27.6197 30.8085 27.5887 30.7524 27.5704 30.6918C27.5522 30.6311 27.5471 30.5673 27.5555 30.5045L29.3347 16.5168L28.5889 30.5937C28.5731 30.827 28.23 31.008 27.9957 31.008Z" fill="black"/>
<path d="M27.9956 31.4045C27.8757 31.4047 27.7572 31.3791 27.6481 31.3296C27.5389 31.2801 27.4417 31.2078 27.3628 31.1175C27.2839 31.0272 27.2253 30.9211 27.1909 30.8063C27.1565 30.6915 27.1471 30.5707 27.1633 30.4519L28.9419 16.4668C28.9683 16.2557 29.1514 16.1027 29.3699 16.1227C29.472 16.1319 29.5666 16.1803 29.6337 16.2578C29.7009 16.3352 29.7353 16.4357 29.7299 16.5381L28.9841 30.615C28.9493 31.1259 28.3772 31.4045 27.9956 31.4045ZM28.3703 27.2351L27.9481 30.5548L27.9956 30.6129C28.069 30.6055 28.1385 30.5767 28.1956 30.53L28.3698 27.2351H28.3703Z" fill="black"/>
</svg>
