<svg width="47" height="46" viewBox="0 0 47 46" fill="none" xmlns="http://www.w3.org/2000/svg">
<path d="M15.3984 45.1016H14.2031C11.4688 45.1016 9.40625 44.7031 8.01562 43.9062C6.64062 43.125 5.74219 41.8281 5.32031 40.0156C5.05469 38.8594 4.92188 37.0547 4.92188 34.6016C4.92188 31.4609 4.76562 29.3516 4.45312 28.2734C4.25 27.5391 3.78906 26.8906 3.07031 26.3281C2.71094 26.0312 2.28125 25.8047 1.78125 25.6484C1.29688 25.4766 0.703125 25.3906 0 25.3906V19.7656C0.515625 19.7656 0.976562 19.7266 1.38281 19.6484C1.78906 19.5547 2.15625 19.4219 2.48438 19.25C3.3125 18.8125 3.89844 18.1562 4.24219 17.2812C4.69531 16.0938 4.92188 14.1406 4.92188 11.4219C4.92188 8.40625 5.0625 6.29688 5.34375 5.09375C5.70312 3.42188 6.52344 2.1875 7.80469 1.39062C9.22656 0.5 11.3594 0.0546875 14.2031 0.0546875H15.3984V5.65625C13.6953 5.65625 12.5859 5.78125 12.0703 6.03125C11.2266 6.4375 10.8047 7.39062 10.8047 8.89062C10.7422 9.9375 10.6875 10.9141 10.6406 11.8203C10.6094 12.7266 10.5938 13.6172 10.5938 14.4922C10.5938 16.3672 10.3281 17.875 9.79688 19.0156C9.20312 20.3125 8.125 21.5 6.5625 22.5781C7.96875 23.4062 8.96094 24.3516 9.53906 25.4141C10.2578 26.7422 10.6172 28.6406 10.6172 31.1094L10.7812 36.0781C10.7812 37.5312 11.0781 38.4609 11.6719 38.8672C12.2656 39.2734 13.5078 39.4766 15.3984 39.4766V45.1016ZM27.0234 16.6953H20.6953V10.1094H27.0234V16.6953ZM27.0234 35.2344C27.0234 36.9375 26.6172 38.375 25.8047 39.5469C24.8984 40.8594 23.4375 41.8984 21.4219 42.6641L20.1797 39.9453C21.4297 39.5234 22.3359 38.9297 22.8984 38.1641C23.4766 37.3984 23.7656 36.3438 23.7656 35H20.6953V28.4141H27.0234V35.2344ZM46.6172 25.3906C45.9453 25.3906 45.3516 25.4766 44.8359 25.6484C44.3359 25.8047 43.9062 26.0312 43.5469 26.3281C42.8438 26.8906 42.3828 27.5312 42.1641 28.25C41.8359 29.375 41.6719 31.4922 41.6719 34.6016C41.6719 37.1172 41.5469 38.9219 41.2969 40.0156C40.875 41.8125 39.9688 43.1094 38.5781 43.9062C37.1875 44.7031 35.1328 45.1016 32.4141 45.1016H31.2188V39.4766C33.0938 39.4766 34.3125 39.2812 34.875 38.8906C35.5156 38.4531 35.8359 37.5156 35.8359 36.0781L36 31.1094C36 28.625 36.3516 26.7266 37.0547 25.4141C37.6172 24.3672 38.6094 23.4219 40.0312 22.5781C38.4844 21.5 37.4141 20.3203 36.8203 19.0391C36.2891 17.8984 36.0234 16.3828 36.0234 14.4922C36.0234 13.3359 35.9922 12.2969 35.9297 11.375C35.8828 10.4375 35.8438 9.60938 35.8125 8.89062C35.8125 7.39062 35.3984 6.4375 34.5703 6.03125C34.0703 5.78125 32.9531 5.65625 31.2188 5.65625V0.0546875H32.4141C35.2422 0.0546875 37.3672 0.5 38.7891 1.39062C40.0703 2.1875 40.8984 3.42188 41.2734 5.09375C41.5391 6.21875 41.6719 8.32812 41.6719 11.4219C41.6719 14.1406 41.8984 16.0859 42.3516 17.2578C42.6953 18.1484 43.2891 18.8125 44.1328 19.25C44.4453 19.4062 44.7969 19.5312 45.1875 19.625C45.5938 19.7188 46.0703 19.7656 46.6172 19.7656V25.3906Z" fill="#0A8100"/>
</svg>
