<svg width="720" height="775" viewBox="0 0 720 775" fill="none" xmlns="http://www.w3.org/2000/svg">
<g opacity="0.7" filter="url(#filter0_d_613_4972)">
<path d="M636.958 470.788C665.655 377.301 623.436 270.709 547.19 209.499C470.944 148.285 366.909 128.862 270.007 141.814C186.663 152.954 103.665 188.836 51.2269 254.595C27.1355 284.812 12.7718 334.598 43.4783 358.06C80.3793 386.249 135.722 342.704 178.884 359.823C216.954 374.923 222.785 426.698 214.921 466.908C207.058 507.118 192.118 550.437 210.113 587.241C227.049 621.87 269.277 638.081 307.745 635.787C350.473 633.24 390.195 611.385 432.648 604.754C453.914 601.432 474.884 602.841 496.186 599.085C519.658 594.943 541.943 586.594 561.58 572.943C596.86 548.413 624.317 511.968 636.958 470.788Z" fill="url(#paint0_linear_613_4972)"/>
</g>
<path d="M542.95 271.77L499.925 296.806L499.056 297.312L375.067 369.464L374.202 369.967L250.209 442.121L249.344 442.624L223.031 457.936C223.53 458.209 224.038 458.458 224.533 458.733L250.07 443.872L250.935 443.368L374.928 371.215L375.793 370.711L499.782 298.56L500.651 298.054L544.145 272.744C543.748 272.422 543.352 272.094 542.95 271.77Z" fill="url(#paint1_linear_613_4972)"/>
<path d="M485.395 271.836L484.526 272.341L360.537 344.493L359.672 344.996L235.679 417.15L234.814 417.653L190.607 443.378C191.197 443.584 191.778 443.814 192.366 444.025L235.537 418.903L236.402 418.4L360.395 346.246L361.26 345.742L485.249 273.591L486.118 273.085L518.718 254.115C518.267 253.819 517.807 253.533 517.356 253.237L485.395 271.836Z" fill="url(#paint2_linear_613_4972)"/>
<path d="M470.865 246.864L469.996 247.37L346.007 319.521L345.142 320.025L221.149 392.178L220.284 392.682L129.107 445.739C129.447 446.1 129.784 446.462 130.128 446.821L221.012 393.933L221.877 393.43L345.87 321.276L346.735 320.773L470.724 248.621L471.593 248.116L490.321 237.217C489.823 236.944 489.322 236.683 488.818 236.417L470.865 246.864Z" fill="url(#paint3_linear_613_4972)"/>
<path d="M456.333 221.893L455.464 222.399L331.475 294.55L330.61 295.054L206.617 367.207L205.752 367.711L110.293 423.26C110.584 423.649 110.879 424.036 111.171 424.425L206.48 368.962L207.345 368.459L331.338 296.305L332.203 295.802L456.192 223.65L457.061 223.145L459.397 221.785C458.862 221.538 458.328 221.291 457.793 221.044L456.333 221.893Z" fill="url(#paint4_linear_613_4972)"/>
<path d="M492.662 284.324L491.793 284.83L367.804 356.981L366.938 357.485L242.946 429.638L242.081 430.142L207.631 450.189C208.162 450.429 208.678 450.701 209.205 450.943L242.807 431.39L243.672 430.886L367.665 358.733L368.53 358.229L492.519 286.078L493.388 285.572L531.821 263.207C531.398 262.895 530.978 262.581 530.553 262.275L492.662 284.324Z" fill="url(#paint5_linear_613_4972)"/>
<path d="M478.129 259.35L477.26 259.856L353.271 332.007L352.406 332.511L228.413 404.664L227.548 405.168L171.443 437.816C172.115 437.97 172.775 438.162 173.445 438.321L228.274 406.416L229.14 405.912L353.132 333.758L353.997 333.255L477.986 261.103L478.855 260.598L504.855 245.468C504.38 245.186 503.911 244.901 503.434 244.625L478.129 259.35Z" fill="url(#paint6_linear_613_4972)"/>
<path d="M463.599 234.379L462.73 234.885L338.741 307.036L337.876 307.54L213.884 379.693L213.018 380.197L119.332 434.714C119.648 435.089 119.957 435.468 120.272 435.842L213.746 381.448L214.612 380.944L338.604 308.791L339.47 308.287L463.459 236.136L464.328 235.63L475.127 229.346C474.61 229.088 474.096 228.829 473.579 228.572L463.599 234.379Z" fill="url(#paint7_linear_613_4972)"/>
<path d="M629.761 388.391L572.582 421.664L571.713 422.17L447.724 494.321L446.859 494.825L341.695 556.021C342.06 556.368 342.424 556.714 342.783 557.059L447.585 496.073L448.45 495.569L572.439 423.418L573.308 422.912L630.32 389.736C630.135 389.29 629.948 388.84 629.761 388.391Z" fill="url(#paint8_linear_613_4972)"/>
<path d="M558.052 396.693L557.183 397.199L433.194 469.35L432.328 469.854L320.074 535.177C320.435 535.525 320.796 535.873 321.157 536.222L433.057 471.105L433.922 470.602L557.911 398.45L558.78 397.945L618.037 363.462C617.812 363.034 617.587 362.607 617.361 362.18L558.052 396.693Z" fill="url(#paint9_linear_613_4972)"/>
<path d="M543.52 371.723L542.651 372.228L418.662 444.38L417.797 444.883L298.232 514.46C298.604 514.802 298.972 515.147 299.343 515.489L418.525 446.135L419.39 445.631L543.379 373.48L544.248 372.974L603.332 338.592C603.068 338.187 602.808 337.78 602.541 337.377L543.52 371.723Z" fill="url(#paint10_linear_613_4972)"/>
<path d="M528.99 346.751L528.121 347.257L404.132 419.408L403.266 419.912L279.274 492.065L278.409 492.569L275.367 494.339C275.759 494.669 276.152 494.999 276.544 495.329L279.137 493.82L280.002 493.317L403.995 421.163L404.86 420.66L528.849 348.508L529.718 348.003L586.208 315.13C585.903 314.749 585.605 314.364 585.293 313.988L528.99 346.751Z" fill="url(#paint11_linear_613_4972)"/>
<path d="M514.46 321.781L513.591 322.286L389.602 394.438L388.736 394.941L264.744 467.095L263.878 467.598L250.67 475.285C251.098 475.589 251.52 475.906 251.949 476.211L264.604 468.846L265.47 468.343L389.462 396.189L390.328 395.686L514.317 323.534L515.186 323.028L566.56 293.133C566.209 292.779 565.848 292.43 565.496 292.082L514.46 321.781Z" fill="url(#paint12_linear_613_4972)"/>
<path d="M565.316 409.179L564.447 409.684L440.458 481.836L439.593 482.34L330.863 545.611C331.224 545.96 331.585 546.308 331.946 546.656L440.321 483.591L441.187 483.087L565.176 410.936L566.045 410.43L624.485 376.423C624.28 375.983 624.072 375.546 623.868 375.107L565.316 409.179Z" fill="url(#paint13_linear_613_4972)"/>
<path d="M550.787 384.208L549.918 384.713L425.929 456.865L425.063 457.368L309.232 524.772C309.597 525.119 309.963 525.46 310.329 525.809L425.792 458.62L426.657 458.116L550.646 385.965L551.515 385.459L610.988 350.851C610.742 350.436 610.499 350.018 610.253 349.603L550.787 384.208Z" fill="url(#paint14_linear_613_4972)"/>
<path d="M536.255 359.237L535.386 359.742L411.397 431.894L410.531 432.397L286.98 504.294C287.362 504.63 287.749 504.959 288.133 505.298L411.26 433.649L412.125 433.145L536.114 360.994L536.983 360.488L595.076 326.683C594.791 326.29 594.514 325.893 594.222 325.504L536.255 359.237Z" fill="url(#paint15_linear_613_4972)"/>
<path d="M521.725 334.266L520.856 334.772L396.867 406.923L396.001 407.427L272.009 479.58L271.144 480.084L263.295 484.651C263.704 484.971 264.126 485.28 264.538 485.603L271.872 481.335L272.737 480.832L396.73 408.678L397.595 408.175L521.584 336.023L522.453 335.518L576.715 303.941C576.386 303.575 576.056 303.208 575.723 302.844L521.725 334.266Z" fill="url(#paint16_linear_613_4972)"/>
<path d="M507.193 309.295L506.324 309.801L382.335 381.952L381.47 382.456L257.477 454.609L256.612 455.113L237.289 466.357C237.751 466.647 238.207 466.935 238.665 467.227L257.338 456.361L258.203 455.857L382.196 383.704L383.061 383.2L507.05 311.049L507.919 310.543L555.716 282.729C555.341 282.389 554.965 282.054 554.587 281.716L507.193 309.295Z" fill="url(#paint17_linear_613_4972)"/>
<path d="M630.708 521.551L629.839 522.057L505.85 594.208L504.985 594.712L442.439 631.108C442.978 631.354 443.512 631.601 444.048 631.842L505.707 595.962L506.573 595.458L630.562 523.307L631.431 522.801L650.833 511.511C650.881 510.929 650.911 510.349 650.955 509.769L630.708 521.551Z" fill="url(#paint18_linear_613_4972)"/>
<path d="M616.178 496.58L615.31 497.086L491.321 569.237L490.455 569.741L412.998 614.814C413.451 615.105 413.892 615.415 414.346 615.7L491.181 570.989L492.047 570.485L616.036 498.334L616.905 497.828L651.055 477.955C651.02 477.422 650.973 476.886 650.934 476.355L616.178 496.58Z" fill="url(#paint19_linear_613_4972)"/>
<path d="M601.648 471.609L600.779 472.115L476.79 544.266L475.925 544.77L387.289 596.349C387.695 596.671 388.098 596.995 388.505 597.311L476.647 546.02L477.513 545.516L601.502 473.365L602.371 472.859L647.126 446.815C647.033 446.311 646.952 445.804 646.859 445.3L601.648 471.609Z" fill="url(#paint20_linear_613_4972)"/>
<path d="M587.114 446.635L586.245 447.141L462.256 519.292L461.391 519.796L363.836 576.564C364.214 576.903 364.593 577.241 364.969 577.576L462.117 521.043L462.982 520.54L586.971 448.388L587.84 447.883L640.093 417.476C639.952 417 639.801 416.534 639.659 416.058L587.114 446.635Z" fill="url(#paint21_linear_613_4972)"/>
<path d="M637.975 534.037L637.106 534.542L513.117 606.694L512.252 607.198L459.324 637.997C459.924 638.211 460.527 638.409 461.124 638.62L512.978 608.445L513.843 607.942L637.832 535.79L638.701 535.285L648.493 529.587C648.603 528.969 648.708 528.349 648.813 527.73L637.975 534.037Z" fill="url(#paint22_linear_613_4972)"/>
<path d="M623.444 509.066L622.575 509.571L498.586 581.723L497.721 582.226L427.08 623.333C427.573 623.605 428.071 623.869 428.564 624.14L498.444 583.476L499.309 582.973L623.298 510.821L624.167 510.316L651.554 494.379C651.558 493.818 651.571 493.257 651.568 492.7L623.444 509.066Z" fill="url(#paint23_linear_613_4972)"/>
<path d="M608.913 484.095L608.044 484.601L484.055 556.752L483.189 557.256L399.785 605.79C400.216 606.098 400.651 606.398 401.081 606.706L483.916 558.503L484.781 558L608.77 485.848L609.639 485.343L649.515 462.138C649.446 461.62 649.386 461.101 649.317 460.583L608.913 484.095Z" fill="url(#paint24_linear_613_4972)"/>
<path d="M594.383 459.124L593.514 459.63L469.525 531.781L468.659 532.285L375.324 586.598C375.716 586.928 376.117 587.249 376.509 587.579L469.385 533.533L470.251 533.029L594.24 460.878L595.109 460.372L643.98 431.933C643.862 431.443 643.74 430.961 643.619 430.473L594.383 459.124Z" fill="url(#paint25_linear_613_4972)"/>
<path d="M579.851 434.153L578.982 434.659L454.993 506.81L454.127 507.314L352.648 566.366C353.02 566.708 353.388 567.053 353.759 567.395L454.859 508.563L455.725 508.059L579.713 435.908L580.582 435.402L635.537 403.424C635.374 402.96 635.204 402.5 635.038 402.039L579.851 434.153Z" fill="url(#paint26_linear_613_4972)"/>
<path d="M644.549 546.925L644.372 547.028L520.383 619.179L519.517 619.683L478.217 643.716C478.896 643.884 479.582 644.039 480.266 644.199L520.246 620.934L521.111 620.43L643.97 548.936C644.166 548.264 644.359 547.598 644.549 546.925Z" fill="url(#paint27_linear_613_4972)"/>
<path d="M534.049 644.653L527.393 648.527C528.496 648.457 529.598 648.374 530.7 648.277L534.777 645.905L535.643 645.401L621.49 595.445C622.166 594.503 622.841 593.56 623.494 592.604L534.914 644.15L534.049 644.653Z" fill="url(#paint28_linear_613_4972)"/>
<path d="M526.783 632.172L500.078 647.712C500.877 647.806 501.673 647.91 502.469 647.991L527.51 633.42L528.375 632.916L636.079 570.241C636.416 569.501 636.727 568.748 637.053 568.004L527.649 631.668L526.783 632.172Z" fill="url(#paint29_linear_613_4972)"/>
<path d="M172.25 136.502L123.57 164.829C121.719 166.405 119.895 168.02 118.113 169.676L178.868 134.321C176.646 134.995 174.439 135.721 172.25 136.502Z" fill="url(#paint30_linear_613_4972)"/>
<path d="M104.756 194.162L105.622 193.658L217.57 128.513C216.606 128.511 215.64 128.506 214.678 128.525L104.899 192.408L104.034 192.912L93.0775 199.287C92.4875 200.184 91.8934 201.074 91.3218 201.979L104.756 194.162Z" fill="url(#paint31_linear_613_4972)"/>
<path d="M177.412 319.019L178.277 318.516L302.27 246.362L303.135 245.859L393.269 193.408C392.71 193.175 392.154 192.94 391.599 192.705L302.41 244.605L301.545 245.109L177.553 317.262L176.687 317.766L81.8192 372.971C82.0028 373.423 82.1934 373.87 82.3805 374.32L177.412 319.019Z" fill="url(#paint32_linear_613_4972)"/>
<path d="M162.882 294.049L163.747 293.545L287.74 221.392L288.605 220.888L360.216 179.217C359.674 178.973 359.133 178.73 358.591 178.487L287.881 219.635L287.015 220.138L163.023 292.292L162.157 292.795L72.618 344.9C72.7425 345.386 72.881 345.864 73.0055 346.349L162.882 294.049Z" fill="url(#paint33_linear_613_4972)"/>
<path d="M148.351 269.078L149.216 268.574L273.209 196.421L274.074 195.917L328.504 164.244C327.983 163.988 327.465 163.731 326.947 163.479L273.352 194.667L272.486 195.171L148.494 267.324L147.628 267.828L67.2341 314.611C67.2891 315.137 67.3317 315.666 67.3902 316.19L148.351 269.078Z" fill="url(#paint34_linear_613_4972)"/>
<path d="M133.819 244.106L134.685 243.603L258.677 171.449L259.543 170.946L296.995 149.151C296.457 148.906 295.919 148.661 295.383 148.419L258.816 169.698L257.951 170.202L133.959 242.355L133.093 242.859L66.5261 281.595C66.4887 282.171 66.4533 282.75 66.4215 283.326L133.819 244.106Z" fill="url(#paint35_linear_613_4972)"/>
<path d="M119.286 219.132L120.152 218.629L244.144 146.475L245.01 145.972L262.473 135.81C261.839 135.616 261.2 135.438 260.561 135.252L244.284 144.724L243.418 145.227L119.426 217.381L118.56 217.885L72.6958 244.574C72.5104 245.231 72.3415 245.892 72.1636 246.554L119.286 219.132Z" fill="url(#paint36_linear_613_4972)"/>
<path d="M170.146 306.534L171.012 306.03L295.004 233.877L295.87 233.373L376.622 186.382C376.07 186.145 375.514 185.91 374.966 185.671L295.145 232.12L294.279 232.624L170.287 304.777L169.422 305.281L76.7887 359.185C76.9411 359.655 77.0879 360.123 77.2457 360.595L170.146 306.534Z" fill="url(#paint37_linear_613_4972)"/>
<path d="M155.616 281.563L156.482 281.059L280.474 208.906L281.34 208.402L344.167 171.842C343.639 171.591 343.115 171.338 342.59 171.084L280.615 207.149L279.749 207.653L155.757 279.806L154.892 280.31L69.4191 330.048C69.5123 330.552 69.6036 331.052 69.6989 331.56L155.616 281.563Z" fill="url(#paint38_linear_613_4972)"/>
<path d="M141.084 256.592L141.95 256.089L265.942 183.935L266.808 183.431L312.898 156.611C312.374 156.357 311.85 156.104 311.328 155.854L266.085 182.182L265.22 182.685L141.227 254.839L140.362 255.342L66.1999 298.498C66.2133 299.049 66.2211 299.598 66.2379 300.147L141.084 256.592Z" fill="url(#paint39_linear_613_4972)"/>
<path d="M126.554 231.621L127.42 231.118L251.412 158.964L252.278 158.461L280.391 142.101C279.818 141.876 279.25 141.644 278.681 141.426L251.552 157.213L250.686 157.716L126.694 229.87L125.828 230.373L68.528 263.718C68.4301 264.333 68.3142 264.949 68.2183 265.568L126.554 231.621Z" fill="url(#paint40_linear_613_4972)"/>
<path d="M112.023 206.65L112.888 206.147L236.881 133.993L237.746 133.49L242.293 130.844C241.555 130.711 240.815 130.583 240.079 130.462L237.02 132.242L236.155 132.746L112.162 204.899L111.297 205.403L80.0241 223.601C79.7121 224.336 79.4002 225.071 79.0992 225.809L112.023 206.65Z" fill="url(#paint41_linear_613_4972)"/>
<path d="M198.05 474.149L197.174 472.988L175.471 485.618C175.908 485.922 176.35 486.218 176.791 486.52L198.05 474.149Z" fill="url(#paint42_linear_613_4972)"/>
<path d="M180.491 450.94L179.612 449.781L150.828 466.531C151.213 466.865 151.595 467.202 151.982 467.53L180.491 450.94Z" fill="url(#paint43_linear_613_4972)"/>
<path d="M191.943 343.99L192.809 343.486L316.801 271.333L317.666 270.829L426.706 207.378C426.15 207.143 425.598 206.905 425.042 206.67L316.942 269.576L316.076 270.08L192.084 342.233L191.218 342.737L94.4527 399.046C94.692 399.466 94.9382 399.881 95.1809 400.298L191.943 343.99Z" fill="url(#paint44_linear_613_4972)"/>
<path d="M189.271 462.543L188.392 461.384L162.781 476.288C163.194 476.606 163.605 476.92 164.018 477.238L189.271 462.543Z" fill="url(#paint45_linear_613_4972)"/>
<path d="M140.691 457.387L171.707 439.338L170.831 438.177L139.59 456.357C139.952 456.7 140.327 457.041 140.691 457.387Z" fill="url(#paint46_linear_613_4972)"/>
<path d="M199.21 356.479L200.076 355.975L324.068 283.822L324.934 283.318L443.215 214.488C442.67 214.247 442.122 214.008 441.573 213.769L324.209 282.065L323.344 282.569L199.351 354.722L198.486 355.226L101.998 411.374C102.262 411.779 102.518 412.188 102.785 412.59L199.21 356.479Z" fill="url(#paint47_linear_613_4972)"/>
<path d="M88.3551 387.561L184.683 331.507L185.548 331.003L309.541 258.849L310.406 258.346L410.019 200.38C409.46 200.147 408.901 199.913 408.342 199.68L309.678 257.095L308.813 257.598L184.82 329.752L183.955 330.255L87.7243 386.253C87.9357 386.689 88.1402 387.128 88.3551 387.561Z" fill="url(#paint48_linear_613_4972)"/>
<path d="M215.612 497.356L214.733 496.197L203.189 502.915C203.679 503.188 204.165 503.464 204.656 503.732L215.612 497.356Z" fill="url(#paint49_linear_613_4972)"/>
<path d="M224.389 508.961L223.508 507.799L218.273 510.845C218.791 511.103 219.305 511.362 219.822 511.619L224.389 508.961Z" fill="url(#paint50_linear_613_4972)"/>
<path d="M188.934 494.497C189.395 494.787 189.858 495.071 190.324 495.359L206.831 485.753L205.952 484.594L188.934 494.497Z" fill="url(#paint51_linear_613_4972)"/>
<g filter="url(#filter1_d_613_4972)">
<path d="M144.719 367.083C157.108 369.365 168.092 378.296 172.872 389.967C183.039 414.793 165.208 442.922 169.906 469.317C171.406 477.759 175.169 486.579 172.002 494.526C168.28 503.851 156.038 507.29 146.424 504.339C136.808 501.392 129.391 493.797 122.847 486.144C110.319 471.499 99.0731 455.061 94.6413 436.318C87.1865 404.823 105.864 359.919 144.719 367.083Z" fill="url(#paint52_linear_613_4972)"/>
</g>
<g filter="url(#filter2_d_613_4972)">
<path d="M170.593 172.983C164.41 164.341 164.838 151.398 172.007 143.468C179.177 135.541 192.547 133.912 201.025 140.334C205.837 143.98 208.926 150.302 207.448 156.168C206.203 161.111 202.306 164.415 198.733 167.751C195.599 170.676 193.876 173.94 191.277 177.212C185.375 184.645 175.142 179.34 170.593 172.983Z" fill="url(#paint53_linear_613_4972)"/>
</g>
<g filter="url(#filter3_d_613_4972)">
<path d="M149.339 524.544C151.427 522.579 154.59 521.739 157.26 522.706C160.522 523.886 162.509 527.718 161.799 531.148C161.085 534.579 157.888 537.285 154.423 537.592C146.216 538.321 143.732 529.83 149.339 524.544Z" fill="url(#paint54_linear_613_4972)"/>
</g>
<g filter="url(#filter4_d_613_4972)">
<path d="M229.732 570.162C240.581 559.954 257.008 555.593 270.88 560.613C287.823 566.744 298.144 586.651 294.457 604.465C290.748 622.288 274.138 636.345 256.139 637.936C213.509 641.727 200.608 597.617 229.732 570.162Z" fill="url(#paint55_linear_613_4972)"/>
</g>
<g filter="url(#filter5_d_613_4972)">
<path d="M80.449 287.773C86.8838 281.718 96.6271 279.132 104.855 282.109C114.905 285.746 121.026 297.553 118.84 308.119C116.639 318.691 106.788 327.029 96.1119 327.972C70.8263 330.221 63.1745 304.058 80.449 287.773Z" fill="url(#paint56_linear_613_4972)"/>
</g>
<g filter="url(#filter6_d_613_4972)">
<path d="M193.756 192.857C192.982 194.254 185.797 199.372 184.216 199.312C182.285 199.239 180.856 194.977 180.65 193.037C180.447 191.096 181.684 189.117 183.471 188.367C187.701 186.587 195.834 189.102 193.756 192.857Z" fill="url(#paint57_linear_613_4972)"/>
</g>
<g filter="url(#filter7_d_613_4972)">
<path d="M663.339 391.544C665.427 389.579 668.59 388.739 671.26 389.706C674.522 390.886 676.509 394.718 675.799 398.148C675.085 401.579 671.888 404.285 668.423 404.592C660.216 405.321 657.732 396.83 663.339 391.544Z" fill="url(#paint58_linear_613_4972)"/>
</g>
<g filter="url(#filter8_d_613_4972)">
<path d="M664.298 413.827C656.745 414.952 650.276 420.146 642.689 421.042C634.266 422.038 624.845 417.751 617.661 422.174C612.353 425.444 610.566 432.717 612.359 438.703C614.152 444.69 618.832 449.462 624.042 452.981C634.886 460.298 649.004 463.034 661.439 459.193C673.183 455.563 683.76 445.102 686.679 433.019C689.481 421.433 674.863 412.252 664.298 413.827Z" fill="url(#paint59_linear_613_4972)"/>
</g>
<g filter="url(#filter9_d_613_4972)">
<path d="M181.319 372.83C184.942 370.43 190.495 371.908 192.527 375.749C194.562 379.591 192.735 384.936 188.82 386.817C184.901 388.696 179.651 386.86 177.672 382.987C175.693 379.115 177.218 373.865 180.909 371.57" fill="url(#paint60_linear_613_4972)"/>
</g>
<path d="M299.151 371.18C298.395 332.832 318.599 287.263 335.675 255.797C354.158 221.724 373.084 196.359 373.267 196.098L373.788 196.489C373.606 196.75 354.705 222.063 336.248 256.11C319.225 287.524 299.047 332.963 299.803 371.18H299.151Z" fill="#FCFDFE"/>
<path d="M165.859 408.825L165.65 408.199C174.41 405.227 184.499 403.376 195.63 402.698C200.948 402.386 206.162 402.412 211.142 402.803L211.089 403.481C206.136 403.089 200.948 403.063 195.656 403.376C184.603 404.028 174.566 405.879 165.859 408.825Z" fill="#FCFDFE"/>
<path d="M368.73 538.468L235.985 553.458C211.74 555.231 191.119 536.044 191.119 511.747V228.424L368.73 236.271V538.468Z" fill="url(#paint61_linear_613_4972)"/>
<path d="M313.723 261.976L218.752 258.769V250.01L313.723 253.503V261.976Z" fill="white"/>
<path d="M313.723 276.287L218.752 273.576V264.817L313.723 267.815V276.287Z" fill="white"/>
<path d="M313.723 290.574L218.752 288.384V279.625L313.723 282.101V290.574Z" fill="white"/>
<path d="M313.723 304.886L218.752 303.191V294.432L313.723 296.413V304.886Z" fill="white"/>
<path d="M313.723 319.172L218.752 317.999V309.239L313.723 310.699V319.172Z" fill="white"/>
<path d="M313.723 338.568L218.752 338.073V329.287L313.723 330.095V338.568Z" fill="white"/>
<path d="M313.723 352.854L218.752 352.88V344.094L313.723 344.381V352.854Z" fill="white"/>
<path d="M313.723 367.166L218.752 367.687V358.902L313.723 358.693V367.166Z" fill="white"/>
<path d="M313.723 381.452L218.752 382.494V373.709L313.723 372.979V381.452Z" fill="white"/>
<path d="M313.723 395.764L218.752 397.302V388.517L313.723 387.292V395.764Z" fill="white"/>
<path d="M313.723 419.07L218.752 421.416V412.657L313.723 410.598V419.07Z" fill="white"/>
<path d="M313.723 433.356L218.752 436.224V427.464L313.723 424.883V433.356Z" fill="white"/>
<path d="M313.723 447.668L218.752 451.031V442.272L313.723 439.195V447.668Z" fill="white"/>
<path d="M313.723 461.954L218.752 465.839V457.08L313.723 453.482V461.954Z" fill="white"/>
<path d="M313.723 476.267L218.752 480.646V471.887L313.723 467.794V476.267Z" fill="white"/>
<path d="M313.723 499.572L218.752 504.786V496.001L313.723 491.1V499.572Z" fill="white"/>
<path d="M313.723 513.858L218.752 519.594V510.808L313.723 505.386V513.858Z" fill="white"/>
<path d="M313.723 528.171L218.752 534.401V525.616L313.723 519.698V528.171Z" fill="white"/>
<path d="M384.972 491.569L145.707 513.181C142.136 513.468 137 508.749 137 505.178V324.021C137 320.658 139.685 317.947 143.048 317.895L384.373 314.558C387.788 314.506 394.253 317.035 394.253 320.45L390.577 485.495C390.603 488.65 388.153 491.309 384.972 491.569Z" fill="url(#paint62_linear_613_4972)"/>
<path d="M389.821 493.237L148.497 512.92C144.925 513.207 141.875 510.391 141.875 506.82V325.663C141.875 322.3 144.56 319.589 147.923 319.537L389.248 316.2C392.663 316.148 395.452 318.911 395.452 322.326V487.111C395.452 490.344 393.002 493.003 389.821 493.237Z" fill="url(#paint63_linear_613_4972)"/>
<path d="M169.821 505.594L374.231 489.327C377.49 489.066 380.018 486.355 380.018 483.07V326.706C380.018 323.212 377.151 320.371 373.657 320.423L169.247 323.551C165.806 323.604 163.069 326.393 163.069 329.834V499.338C163.042 502.987 166.171 505.881 169.821 505.594Z" fill="url(#paint64_linear_613_4972)"/>
<path d="M388.544 410.102C387.371 410.102 386.406 409.138 386.406 407.964V392.114C386.406 390.941 387.371 389.977 388.544 389.977C389.717 389.977 390.682 390.941 390.682 392.114V407.964C390.682 409.138 389.743 410.102 388.544 410.102Z" fill="url(#paint65_linear_613_4972)"/>
<path opacity="0.35" d="M343.94 454.472C325.326 438.231 310.389 444.592 290.706 428.09C266.253 407.599 278.428 388.725 256.92 370.685C230.017 348.135 197.482 366.436 177.304 343.834C172.012 337.916 169.066 330.877 167.528 323.838C164.947 324.62 163.07 327.019 163.07 329.834V499.338C163.07 503.014 166.199 505.881 169.848 505.594L365.578 490.005C361.98 477.857 355.619 464.665 343.94 454.472Z" fill="white"/>
<path d="M577 495.506C577 510.834 565.477 524.286 551.087 525.564L237.211 553.588C255.329 551.972 269.824 536.747 269.824 519.568V187L577 198.94V495.506Z" fill="url(#paint66_linear_613_4972)"/>
<path d="M554.163 314.349L440.057 315.105V303.557L554.163 303.296V314.349Z" fill="white"/>
<path d="M427.622 412.996L301.654 418.418V303.869L427.622 303.583V412.996Z" fill="white"/>
<path d="M554.163 332.989L440.057 334.579V323.03L554.163 321.936V332.989Z" fill="white"/>
<path d="M554.163 351.629L440.057 354.053V342.504L554.163 340.575V351.629Z" fill="white"/>
<path d="M554.163 370.242L440.057 373.501V361.978L554.163 359.215V370.242Z" fill="white"/>
<path d="M554.163 388.882L440.057 392.975V381.452L554.163 377.854V388.882Z" fill="white"/>
<path d="M554.163 407.521L440.057 412.449V400.926L554.163 396.494V407.521Z" fill="white"/>
<path d="M554.163 432.783L440.057 438.831V427.308L554.163 421.755V432.783Z" fill="white"/>
<path d="M554.163 451.422L440.057 458.305V446.782L554.163 440.395V451.422Z" fill="white"/>
<path d="M554.163 470.062L440.057 477.779V466.256L554.163 459.035V470.062Z" fill="white"/>
<path d="M554.163 488.702L440.057 497.252V485.73L554.163 477.674V488.702Z" fill="white"/>
<path d="M554.163 507.342L440.057 516.727V505.204L554.163 496.288V507.342Z" fill="white"/>
<path d="M427.622 439.509L301.654 446.182V434.06L427.622 427.908V439.509Z" fill="white"/>
<path d="M427.622 459.061L301.654 466.673V454.525L427.622 447.486V459.061Z" fill="white"/>
<path d="M427.622 478.613L301.654 487.138V475.015L427.622 467.038V478.613Z" fill="white"/>
<path d="M427.622 498.191L301.654 507.628V495.506L427.622 486.59V498.191Z" fill="white"/>
<path d="M427.622 517.743L301.654 528.119V515.971L427.622 506.168V517.743Z" fill="white"/>
<path d="M318.86 259.655V281.032L303.688 280.876V217.579L328.74 218.387C333.485 218.544 337.682 219.56 341.306 221.437C344.929 223.314 347.719 225.895 349.7 229.18C351.681 232.465 352.672 236.167 352.672 240.26C352.672 246.334 350.534 251.13 346.259 254.676C341.957 258.247 336.04 259.968 328.48 259.838L318.86 259.655ZM318.86 247.924L328.714 248.132C331.608 248.185 333.824 247.507 335.336 246.073C336.848 244.639 337.604 242.606 337.604 239.947C337.604 237.027 336.822 234.681 335.258 232.882C333.693 231.083 331.556 230.145 328.871 230.04L318.834 229.754L318.86 247.924Z" fill="white"/>
<path d="M382.938 259.89L375.091 259.759V281.606L360.492 281.449V219.378L384.241 220.134C391.306 220.369 396.833 222.141 400.796 225.478C404.732 228.815 406.713 233.403 406.713 239.269C406.713 243.518 405.879 247.012 404.237 249.775C402.568 252.538 399.961 254.754 396.416 256.423L408.747 281.293V281.919L393.47 281.762L382.938 259.89ZM375.091 248.289L384.241 248.497C386.979 248.55 389.038 247.872 390.42 246.412C391.802 244.952 392.479 242.919 392.479 240.26C392.479 237.6 391.775 235.515 390.394 233.977C389.012 232.439 386.953 231.631 384.241 231.552L375.091 231.292V248.289Z" fill="white"/>
<path d="M451.058 256.866L429.264 256.449V270.917L454.968 271.282V282.414L415.238 282.023V221.151L455.046 222.428V233.586L429.264 232.856V245.63L451.058 246.151V256.866Z" fill="white"/>
<path d="M489.433 267.007C489.433 264.922 488.729 263.279 487.348 262.08C485.966 260.881 483.515 259.63 480.022 258.326C476.529 256.997 473.635 255.745 471.419 254.52C464.12 250.557 460.47 245.239 460.47 238.592C460.47 235.281 461.382 232.387 463.207 229.884C465.032 227.408 467.613 225.505 470.924 224.201C474.235 222.898 477.963 222.324 482.055 222.455C486.044 222.585 489.642 223.471 492.796 225.088C495.95 226.704 498.375 228.946 500.122 231.787C501.868 234.629 502.729 237.836 502.729 241.433L489.459 241.094C489.459 238.67 488.755 236.793 487.374 235.411C485.992 234.056 484.115 233.326 481.743 233.247C479.344 233.169 477.441 233.691 476.033 234.785C474.626 235.88 473.948 237.288 473.948 239.035C473.948 240.573 474.73 241.955 476.268 243.232C477.806 244.509 480.491 245.865 484.35 247.273C488.182 248.68 491.336 250.166 493.787 251.731C499.731 255.537 502.702 260.646 502.702 267.112C502.702 272.273 500.904 276.288 497.254 279.182C493.604 282.101 488.599 283.509 482.212 283.457C477.702 283.405 473.583 282.519 469.881 280.746C466.179 278.973 463.39 276.549 461.513 273.499C459.636 270.448 458.697 266.929 458.697 262.993L472.332 263.227C472.332 266.408 473.114 268.78 474.652 270.318C476.216 271.856 478.719 272.638 482.186 272.69C484.402 272.716 486.148 272.247 487.426 271.231C488.807 270.266 489.433 268.858 489.433 267.007Z" fill="white"/>
<path d="M537.373 267.763C537.373 265.704 536.696 264.113 535.366 262.94C534.037 261.767 531.664 260.542 528.301 259.238C524.912 257.935 522.149 256.684 519.985 255.51C512.946 251.626 509.401 246.412 509.401 239.869C509.401 236.61 510.287 233.769 512.034 231.318C513.781 228.894 516.283 227.017 519.49 225.739C522.696 224.462 526.268 223.888 530.23 224.019C534.089 224.149 537.53 225.009 540.58 226.599C543.604 228.19 545.976 230.38 547.645 233.169C549.313 235.958 550.147 239.113 550.147 242.658L537.347 242.319C537.347 239.947 536.67 238.096 535.34 236.74C534.01 235.385 532.186 234.681 529.892 234.629C527.571 234.551 525.746 235.072 524.391 236.141C523.035 237.21 522.357 238.617 522.357 240.312C522.357 241.824 523.087 243.18 524.573 244.457C526.059 245.708 528.666 247.038 532.368 248.42C536.07 249.801 539.12 251.261 541.466 252.799C547.202 256.527 550.069 261.559 550.069 267.893C550.069 272.951 548.323 276.913 544.829 279.755C541.31 282.623 536.487 284.004 530.335 283.952C525.981 283.9 522.019 283.014 518.447 281.293C514.876 279.546 512.19 277.174 510.365 274.176C508.541 271.178 507.654 267.737 507.654 263.853L520.793 264.087C520.793 267.216 521.549 269.536 523.035 271.048C524.521 272.56 526.946 273.342 530.309 273.368C532.446 273.394 534.141 272.925 535.366 271.934C536.748 270.97 537.373 269.588 537.373 267.763Z" fill="white"/>
<path d="M342.688 397.694C342.167 412.631 332.86 424.415 321.885 424.05C310.91 423.685 302.62 405.567 303.115 390.629C303.636 375.691 312.734 369.617 323.71 369.982C334.711 370.347 343.184 382.756 342.688 397.694Z" fill="white"/>
<path d="M227.095 487.138C222.429 487.555 217.736 485.183 215.416 480.751L182.178 417.428C179.101 411.563 181.369 404.315 187.235 401.239C193.101 398.163 200.348 400.431 203.424 406.297L236.663 469.619C239.739 475.485 237.471 482.732 231.605 485.808C230.171 486.564 228.633 487.008 227.095 487.138Z" fill="url(#paint67_linear_613_4972)"/>
<path d="M203.972 426.266L181.631 428.221C178.085 428.534 174.957 425.901 174.67 422.381L171.881 390.655C171.568 387.11 174.201 383.981 177.72 383.694L200.062 381.739L203.972 426.266Z" fill="url(#paint68_linear_613_4972)"/>
<path d="M200.583 381.661C194.848 397.12 196.125 411.98 204.493 426.213L327.306 454.499L323.161 341.357L200.583 381.661Z" fill="white"/>
<path d="M332.129 458.096H324.308C323.239 458.096 322.379 457.236 322.379 456.167V340.732C322.379 339.663 323.239 338.803 324.308 338.803H332.129C333.198 338.803 334.058 339.663 334.058 340.732V456.167C334.058 457.236 333.198 458.096 332.129 458.096Z" fill="url(#paint69_linear_613_4972)"/>
<path opacity="0.34" d="M298.97 419.878C287.004 416.828 281.895 400.561 268.078 401.343C257.024 401.969 254.6 412.657 243.52 412.657C231.998 412.683 229.052 401.134 215.626 398.215C209.448 396.859 203.139 397.798 197.091 399.961C197.039 408.929 199.489 417.689 204.494 426.213L327.307 454.499L324.075 417.506C313.021 425.588 304.705 421.338 298.97 419.878Z" fill="#D8DEE8"/>
<defs>
<filter id="filter0_d_613_4972" x="20" y="132" width="648" height="526" filterUnits="userSpaceOnUse" color-interpolation-filters="sRGB">
<feFlood flood-opacity="0" result="BackgroundImageFix"/>
<feColorMatrix in="SourceAlpha" type="matrix" values="0 0 0 0 0 0 0 0 0 0 0 0 0 0 0 0 0 0 127 0" result="hardAlpha"/>
<feOffset dx="8" dy="8"/>
<feGaussianBlur stdDeviation="7"/>
<feColorMatrix type="matrix" values="0 0 0 0 0 0 0 0 0 0 0 0 0 0 0 0 0 0 0.25 0"/>
<feBlend mode="normal" in2="BackgroundImageFix" result="effect1_dropShadow_613_4972"/>
<feBlend mode="normal" in="SourceGraphic" in2="effect1_dropShadow_613_4972" result="shape"/>
</filter>
<filter id="filter1_d_613_4972" x="87.0293" y="360.321" width="111.029" height="167.046" filterUnits="userSpaceOnUse" color-interpolation-filters="sRGB">
<feFlood flood-opacity="0" result="BackgroundImageFix"/>
<feColorMatrix in="SourceAlpha" type="matrix" values="0 0 0 0 0 0 0 0 0 0 0 0 0 0 0 0 0 0 127 0" result="hardAlpha"/>
<feOffset dx="8" dy="8"/>
<feGaussianBlur stdDeviation="7"/>
<feColorMatrix type="matrix" values="0 0 0 0 0 0 0 0 0 0 0 0 0 0 0 0 0 0 0.25 0"/>
<feBlend mode="normal" in2="BackgroundImageFix" result="effect1_dropShadow_613_4972"/>
<feBlend mode="normal" in="SourceGraphic" in2="effect1_dropShadow_613_4972" result="shape"/>
</filter>
<filter id="filter2_d_613_4972" x="160.27" y="130.373" width="69.5508" height="72.4644" filterUnits="userSpaceOnUse" color-interpolation-filters="sRGB">
<feFlood flood-opacity="0" result="BackgroundImageFix"/>
<feColorMatrix in="SourceAlpha" type="matrix" values="0 0 0 0 0 0 0 0 0 0 0 0 0 0 0 0 0 0 127 0" result="hardAlpha"/>
<feOffset dx="8" dy="8"/>
<feGaussianBlur stdDeviation="7"/>
<feColorMatrix type="matrix" values="0 0 0 0 0 0 0 0 0 0 0 0 0 0 0 0 0 0 0.25 0"/>
<feBlend mode="normal" in2="BackgroundImageFix" result="effect1_dropShadow_613_4972"/>
<feBlend mode="normal" in="SourceGraphic" in2="effect1_dropShadow_613_4972" result="shape"/>
</filter>
<filter id="filter3_d_613_4972" x="140.318" y="516.304" width="43.625" height="43.332" filterUnits="userSpaceOnUse" color-interpolation-filters="sRGB">
<feFlood flood-opacity="0" result="BackgroundImageFix"/>
<feColorMatrix in="SourceAlpha" type="matrix" values="0 0 0 0 0 0 0 0 0 0 0 0 0 0 0 0 0 0 127 0" result="hardAlpha"/>
<feOffset dx="8" dy="8"/>
<feGaussianBlur stdDeviation="7"/>
<feColorMatrix type="matrix" values="0 0 0 0 0 0 0 0 0 0 0 0 0 0 0 0 0 0 0.25 0"/>
<feBlend mode="normal" in2="BackgroundImageFix" result="effect1_dropShadow_613_4972"/>
<feBlend mode="normal" in="SourceGraphic" in2="effect1_dropShadow_613_4972" result="shape"/>
</filter>
<filter id="filter4_d_613_4972" x="208.039" y="552.525" width="109.164" height="107.641" filterUnits="userSpaceOnUse" color-interpolation-filters="sRGB">
<feFlood flood-opacity="0" result="BackgroundImageFix"/>
<feColorMatrix in="SourceAlpha" type="matrix" values="0 0 0 0 0 0 0 0 0 0 0 0 0 0 0 0 0 0 127 0" result="hardAlpha"/>
<feOffset dx="8" dy="8"/>
<feGaussianBlur stdDeviation="7"/>
<feColorMatrix type="matrix" values="0 0 0 0 0 0 0 0 0 0 0 0 0 0 0 0 0 0 0.25 0"/>
<feBlend mode="normal" in2="BackgroundImageFix" result="effect1_dropShadow_613_4972"/>
<feBlend mode="normal" in="SourceGraphic" in2="effect1_dropShadow_613_4972" result="shape"/>
</filter>
<filter id="filter5_d_613_4972" x="65.1406" y="274.871" width="76.1406" height="75.2373" filterUnits="userSpaceOnUse" color-interpolation-filters="sRGB">
<feFlood flood-opacity="0" result="BackgroundImageFix"/>
<feColorMatrix in="SourceAlpha" type="matrix" values="0 0 0 0 0 0 0 0 0 0 0 0 0 0 0 0 0 0 127 0" result="hardAlpha"/>
<feOffset dx="8" dy="8"/>
<feGaussianBlur stdDeviation="7"/>
<feColorMatrix type="matrix" values="0 0 0 0 0 0 0 0 0 0 0 0 0 0 0 0 0 0 0.25 0"/>
<feBlend mode="normal" in2="BackgroundImageFix" result="effect1_dropShadow_613_4972"/>
<feBlend mode="normal" in="SourceGraphic" in2="effect1_dropShadow_613_4972" result="shape"/>
</filter>
<filter id="filter6_d_613_4972" x="174.629" y="181.783" width="41.4609" height="39.5293" filterUnits="userSpaceOnUse" color-interpolation-filters="sRGB">
<feFlood flood-opacity="0" result="BackgroundImageFix"/>
<feColorMatrix in="SourceAlpha" type="matrix" values="0 0 0 0 0 0 0 0 0 0 0 0 0 0 0 0 0 0 127 0" result="hardAlpha"/>
<feOffset dx="8" dy="8"/>
<feGaussianBlur stdDeviation="7"/>
<feColorMatrix type="matrix" values="0 0 0 0 0 0 0 0 0 0 0 0 0 0 0 0 0 0 0.25 0"/>
<feBlend mode="normal" in2="BackgroundImageFix" result="effect1_dropShadow_613_4972"/>
<feBlend mode="normal" in="SourceGraphic" in2="effect1_dropShadow_613_4972" result="shape"/>
</filter>
<filter id="filter7_d_613_4972" x="654.318" y="383.304" width="43.625" height="43.332" filterUnits="userSpaceOnUse" color-interpolation-filters="sRGB">
<feFlood flood-opacity="0" result="BackgroundImageFix"/>
<feColorMatrix in="SourceAlpha" type="matrix" values="0 0 0 0 0 0 0 0 0 0 0 0 0 0 0 0 0 0 127 0" result="hardAlpha"/>
<feOffset dx="8" dy="8"/>
<feGaussianBlur stdDeviation="7"/>
<feColorMatrix type="matrix" values="0 0 0 0 0 0 0 0 0 0 0 0 0 0 0 0 0 0 0.25 0"/>
<feBlend mode="normal" in2="BackgroundImageFix" result="effect1_dropShadow_613_4972"/>
<feBlend mode="normal" in="SourceGraphic" in2="effect1_dropShadow_613_4972" result="shape"/>
</filter>
<filter id="filter8_d_613_4972" x="605.684" y="407.65" width="103.346" height="75.2783" filterUnits="userSpaceOnUse" color-interpolation-filters="sRGB">
<feFlood flood-opacity="0" result="BackgroundImageFix"/>
<feColorMatrix in="SourceAlpha" type="matrix" values="0 0 0 0 0 0 0 0 0 0 0 0 0 0 0 0 0 0 127 0" result="hardAlpha"/>
<feOffset dx="8" dy="8"/>
<feGaussianBlur stdDeviation="7"/>
<feColorMatrix type="matrix" values="0 0 0 0 0 0 0 0 0 0 0 0 0 0 0 0 0 0 0.25 0"/>
<feBlend mode="normal" in2="BackgroundImageFix" result="effect1_dropShadow_613_4972"/>
<feBlend mode="normal" in="SourceGraphic" in2="effect1_dropShadow_613_4972" result="shape"/>
</filter>
<filter id="filter9_d_613_4972" x="170.801" y="365.57" width="44.5664" height="43.9893" filterUnits="userSpaceOnUse" color-interpolation-filters="sRGB">
<feFlood flood-opacity="0" result="BackgroundImageFix"/>
<feColorMatrix in="SourceAlpha" type="matrix" values="0 0 0 0 0 0 0 0 0 0 0 0 0 0 0 0 0 0 127 0" result="hardAlpha"/>
<feOffset dx="8" dy="8"/>
<feGaussianBlur stdDeviation="7"/>
<feColorMatrix type="matrix" values="0 0 0 0 0 0 0 0 0 0 0 0 0 0 0 0 0 0 0.25 0"/>
<feBlend mode="normal" in2="BackgroundImageFix" result="effect1_dropShadow_613_4972"/>
<feBlend mode="normal" in="SourceGraphic" in2="effect1_dropShadow_613_4972" result="shape"/>
</filter>
<linearGradient id="paint0_linear_613_4972" x1="44.8833" y1="38.3996" x2="713.799" y2="80.352" gradientUnits="userSpaceOnUse">
<stop offset="0.0756841" stop-color="#B565D8"/>
<stop offset="0.945898" stop-color="#EE609C"/>
</linearGradient>
<linearGradient id="paint1_linear_613_4972" x1="232.644" y1="452.008" x2="250.226" y2="477.479" gradientUnits="userSpaceOnUse">
<stop offset="0.0756841" stop-color="#B565D8"/>
<stop offset="0.945898" stop-color="#EE609C"/>
</linearGradient>
<linearGradient id="paint2_linear_613_4972" x1="200.433" y1="437.326" x2="217.976" y2="462.829" gradientUnits="userSpaceOnUse">
<stop offset="0.0756841" stop-color="#B565D8"/>
<stop offset="0.945898" stop-color="#EE609C"/>
</linearGradient>
<linearGradient id="paint3_linear_613_4972" x1="139.941" y1="439.1" x2="157.369" y2="464.804" gradientUnits="userSpaceOnUse">
<stop offset="0.0756841" stop-color="#B565D8"/>
<stop offset="0.945898" stop-color="#EE609C"/>
</linearGradient>
<linearGradient id="paint4_linear_613_4972" x1="120.758" y1="416.836" x2="138.244" y2="442.494" gradientUnits="userSpaceOnUse">
<stop offset="0.0756841" stop-color="#B565D8"/>
<stop offset="0.945898" stop-color="#EE609C"/>
</linearGradient>
<linearGradient id="paint5_linear_613_4972" x1="217.337" y1="444.207" x2="234.902" y2="469.691" gradientUnits="userSpaceOnUse">
<stop offset="0.0756841" stop-color="#B565D8"/>
<stop offset="0.945898" stop-color="#EE609C"/>
</linearGradient>
<linearGradient id="paint6_linear_613_4972" x1="181.431" y1="431.67" x2="198.944" y2="457.196" gradientUnits="userSpaceOnUse">
<stop offset="0.0756841" stop-color="#B565D8"/>
<stop offset="0.945898" stop-color="#EE609C"/>
</linearGradient>
<linearGradient id="paint7_linear_613_4972" x1="130.001" y1="428.171" x2="147.454" y2="453.855" gradientUnits="userSpaceOnUse">
<stop offset="0.0756841" stop-color="#B565D8"/>
<stop offset="0.945898" stop-color="#EE609C"/>
</linearGradient>
<linearGradient id="paint8_linear_613_4972" x1="350.324" y1="550.666" x2="368.112" y2="575.967" gradientUnits="userSpaceOnUse">
<stop offset="0.0756841" stop-color="#B565D8"/>
<stop offset="0.945898" stop-color="#EE609C"/>
</linearGradient>
<linearGradient id="paint9_linear_613_4972" x1="328.983" y1="529.658" x2="346.763" y2="555.077" gradientUnits="userSpaceOnUse">
<stop offset="0.0756841" stop-color="#B565D8"/>
<stop offset="0.945898" stop-color="#EE609C"/>
</linearGradient>
<linearGradient id="paint10_linear_613_4972" x1="307.357" y1="508.815" x2="325.092" y2="534.273" gradientUnits="userSpaceOnUse">
<stop offset="0.0756841" stop-color="#B565D8"/>
<stop offset="0.945898" stop-color="#EE609C"/>
</linearGradient>
<linearGradient id="paint11_linear_613_4972" x1="284.667" y1="488.592" x2="302.364" y2="514.08" gradientUnits="userSpaceOnUse">
<stop offset="0.0756841" stop-color="#B565D8"/>
<stop offset="0.945898" stop-color="#EE609C"/>
</linearGradient>
<linearGradient id="paint12_linear_613_4972" x1="260.124" y1="469.449" x2="277.736" y2="494.895" gradientUnits="userSpaceOnUse">
<stop offset="0.0756841" stop-color="#B565D8"/>
<stop offset="0.945898" stop-color="#EE609C"/>
</linearGradient>
<linearGradient id="paint13_linear_613_4972" x1="339.642" y1="540.168" x2="357.451" y2="565.563" gradientUnits="userSpaceOnUse">
<stop offset="0.0756841" stop-color="#B565D8"/>
<stop offset="0.945898" stop-color="#EE609C"/>
</linearGradient>
<linearGradient id="paint14_linear_613_4972" x1="318.255" y1="519.187" x2="336.011" y2="544.627" gradientUnits="userSpaceOnUse">
<stop offset="0.0756841" stop-color="#B565D8"/>
<stop offset="0.945898" stop-color="#EE609C"/>
</linearGradient>
<linearGradient id="paint15_linear_613_4972" x1="296.196" y1="498.596" x2="313.911" y2="524.069" gradientUnits="userSpaceOnUse">
<stop offset="0.0756841" stop-color="#B565D8"/>
<stop offset="0.945898" stop-color="#EE609C"/>
</linearGradient>
<linearGradient id="paint16_linear_613_4972" x1="272.673" y1="478.859" x2="290.355" y2="504.359" gradientUnits="userSpaceOnUse">
<stop offset="0.0756841" stop-color="#B565D8"/>
<stop offset="0.945898" stop-color="#EE609C"/>
</linearGradient>
<linearGradient id="paint17_linear_613_4972" x1="246.82" y1="460.477" x2="264.418" y2="485.935" gradientUnits="userSpaceOnUse">
<stop offset="0.0756841" stop-color="#B565D8"/>
<stop offset="0.945898" stop-color="#EE609C"/>
</linearGradient>
<linearGradient id="paint18_linear_613_4972" x1="448.645" y1="627.163" x2="467.183" y2="651.791" gradientUnits="userSpaceOnUse">
<stop offset="0.0756841" stop-color="#B565D8"/>
<stop offset="0.945898" stop-color="#EE609C"/>
</linearGradient>
<linearGradient id="paint19_linear_613_4972" x1="420.1" y1="610.348" x2="438.308" y2="635.282" gradientUnits="userSpaceOnUse">
<stop offset="0.0756841" stop-color="#B565D8"/>
<stop offset="0.945898" stop-color="#EE609C"/>
</linearGradient>
<linearGradient id="paint20_linear_613_4972" x1="395.05" y1="591.499" x2="413.059" y2="616.611" gradientUnits="userSpaceOnUse">
<stop offset="0.0756841" stop-color="#B565D8"/>
<stop offset="0.945898" stop-color="#EE609C"/>
</linearGradient>
<linearGradient id="paint21_linear_613_4972" x1="372.091" y1="571.426" x2="389.97" y2="596.651" gradientUnits="userSpaceOnUse">
<stop offset="0.0756841" stop-color="#B565D8"/>
<stop offset="0.945898" stop-color="#EE609C"/>
</linearGradient>
<linearGradient id="paint22_linear_613_4972" x1="464.95" y1="634.389" x2="483.749" y2="658.762" gradientUnits="userSpaceOnUse">
<stop offset="0.0756841" stop-color="#B565D8"/>
<stop offset="0.945898" stop-color="#EE609C"/>
</linearGradient>
<linearGradient id="paint23_linear_613_4972" x1="433.772" y1="619.105" x2="452.123" y2="643.911" gradientUnits="userSpaceOnUse">
<stop offset="0.0756841" stop-color="#B565D8"/>
<stop offset="0.945898" stop-color="#EE609C"/>
</linearGradient>
<linearGradient id="paint24_linear_613_4972" x1="407.24" y1="601.118" x2="425.338" y2="626.151" gradientUnits="userSpaceOnUse">
<stop offset="0.0756841" stop-color="#B565D8"/>
<stop offset="0.945898" stop-color="#EE609C"/>
</linearGradient>
<linearGradient id="paint25_linear_613_4972" x1="383.35" y1="581.593" x2="401.287" y2="606.767" gradientUnits="userSpaceOnUse">
<stop offset="0.0756841" stop-color="#B565D8"/>
<stop offset="0.945898" stop-color="#EE609C"/>
</linearGradient>
<linearGradient id="paint26_linear_613_4972" x1="361.103" y1="561.111" x2="378.989" y2="586.443" gradientUnits="userSpaceOnUse">
<stop offset="0.0756841" stop-color="#B565D8"/>
<stop offset="0.945898" stop-color="#EE609C"/>
</linearGradient>
<linearGradient id="paint27_linear_613_4972" x1="483.137" y1="640.518" x2="502.382" y2="664.549" gradientUnits="userSpaceOnUse">
<stop offset="0.0756841" stop-color="#B565D8"/>
<stop offset="0.945898" stop-color="#EE609C"/>
</linearGradient>
<linearGradient id="paint28_linear_613_4972" x1="530.174" y1="646.573" x2="551.369" y2="668" gradientUnits="userSpaceOnUse">
<stop offset="0.0756841" stop-color="#B565D8"/>
<stop offset="0.945898" stop-color="#EE609C"/>
</linearGradient>
<linearGradient id="paint29_linear_613_4972" x1="504.105" y1="645.035" x2="523.921" y2="668.281" gradientUnits="userSpaceOnUse">
<stop offset="0.0756841" stop-color="#B565D8"/>
<stop offset="0.945898" stop-color="#EE609C"/>
</linearGradient>
<linearGradient id="paint30_linear_613_4972" x1="119.092" y1="167.101" x2="141.859" y2="184.649" gradientUnits="userSpaceOnUse">
<stop offset="0.0756841" stop-color="#B565D8"/>
<stop offset="0.945898" stop-color="#EE609C"/>
</linearGradient>
<linearGradient id="paint31_linear_613_4972" x1="94.2956" y1="198.244" x2="114.399" y2="221.13" gradientUnits="userSpaceOnUse">
<stop offset="0.0756841" stop-color="#B565D8"/>
<stop offset="0.945898" stop-color="#EE609C"/>
</linearGradient>
<linearGradient id="paint32_linear_613_4972" x1="90.9754" y1="367.308" x2="108.669" y2="392.8" gradientUnits="userSpaceOnUse">
<stop offset="0.0756841" stop-color="#B565D8"/>
<stop offset="0.945898" stop-color="#EE609C"/>
</linearGradient>
<linearGradient id="paint33_linear_613_4972" x1="80.8792" y1="339.758" x2="98.7291" y2="365.119" gradientUnits="userSpaceOnUse">
<stop offset="0.0756841" stop-color="#B565D8"/>
<stop offset="0.945898" stop-color="#EE609C"/>
</linearGradient>
<linearGradient id="paint34_linear_613_4972" x1="74.4715" y1="310.065" x2="92.468" y2="335.188" gradientUnits="userSpaceOnUse">
<stop offset="0.0756841" stop-color="#B565D8"/>
<stop offset="0.945898" stop-color="#EE609C"/>
</linearGradient>
<linearGradient id="paint35_linear_613_4972" x1="72.5727" y1="277.742" x2="90.857" y2="302.608" gradientUnits="userSpaceOnUse">
<stop offset="0.0756841" stop-color="#B565D8"/>
<stop offset="0.945898" stop-color="#EE609C"/>
</linearGradient>
<linearGradient id="paint36_linear_613_4972" x1="77.0885" y1="241.684" x2="95.8754" y2="266.069" gradientUnits="userSpaceOnUse">
<stop offset="0.0756841" stop-color="#B565D8"/>
<stop offset="0.945898" stop-color="#EE609C"/>
</linearGradient>
<linearGradient id="paint37_linear_613_4972" x1="85.49" y1="353.787" x2="103.257" y2="379.218" gradientUnits="userSpaceOnUse">
<stop offset="0.0756841" stop-color="#B565D8"/>
<stop offset="0.945898" stop-color="#EE609C"/>
</linearGradient>
<linearGradient id="paint38_linear_613_4972" x1="77.1845" y1="325.194" x2="95.129" y2="350.475" gradientUnits="userSpaceOnUse">
<stop offset="0.0756841" stop-color="#B565D8"/>
<stop offset="0.945898" stop-color="#EE609C"/>
</linearGradient>
<linearGradient id="paint39_linear_613_4972" x1="72.879" y1="294.278" x2="91.0036" y2="319.288" gradientUnits="userSpaceOnUse">
<stop offset="0.0756841" stop-color="#B565D8"/>
<stop offset="0.945898" stop-color="#EE609C"/>
</linearGradient>
<linearGradient id="paint40_linear_613_4972" x1="73.8091" y1="260.31" x2="92.3023" y2="284.981" gradientUnits="userSpaceOnUse">
<stop offset="0.0756841" stop-color="#B565D8"/>
<stop offset="0.945898" stop-color="#EE609C"/>
</linearGradient>
<linearGradient id="paint41_linear_613_4972" x1="83.1982" y1="221.42" x2="102.44" y2="245.329" gradientUnits="userSpaceOnUse">
<stop offset="0.0756841" stop-color="#B565D8"/>
<stop offset="0.945898" stop-color="#EE609C"/>
</linearGradient>
<linearGradient id="paint42_linear_613_4972" x1="175.991" y1="484.981" x2="196.135" y2="488.978" gradientUnits="userSpaceOnUse">
<stop offset="0.0756841" stop-color="#B565D8"/>
<stop offset="0.945898" stop-color="#EE609C"/>
</linearGradient>
<linearGradient id="paint43_linear_613_4972" x1="151.564" y1="465.769" x2="173.829" y2="473.54" gradientUnits="userSpaceOnUse">
<stop offset="0.0756841" stop-color="#B565D8"/>
<stop offset="0.945898" stop-color="#EE609C"/>
</linearGradient>
<linearGradient id="paint44_linear_613_4972" x1="104.403" y1="392.921" x2="121.976" y2="418.509" gradientUnits="userSpaceOnUse">
<stop offset="0.0756841" stop-color="#B565D8"/>
<stop offset="0.945898" stop-color="#EE609C"/>
</linearGradient>
<linearGradient id="paint45_linear_613_4972" x1="163.421" y1="475.581" x2="184.938" y2="481.723" gradientUnits="userSpaceOnUse">
<stop offset="0.0756841" stop-color="#B565D8"/>
<stop offset="0.945898" stop-color="#EE609C"/>
</linearGradient>
<linearGradient id="paint46_linear_613_4972" x1="140.401" y1="455.551" x2="163.07" y2="464.493" gradientUnits="userSpaceOnUse">
<stop offset="0.0756841" stop-color="#B565D8"/>
<stop offset="0.945898" stop-color="#EE609C"/>
</linearGradient>
<linearGradient id="paint47_linear_613_4972" x1="112.223" y1="405.089" x2="129.749" y2="430.715" gradientUnits="userSpaceOnUse">
<stop offset="0.0756841" stop-color="#B565D8"/>
<stop offset="0.945898" stop-color="#EE609C"/>
</linearGradient>
<linearGradient id="paint48_linear_613_4972" x1="97.2782" y1="380.359" x2="114.907" y2="405.902" gradientUnits="userSpaceOnUse">
<stop offset="0.0756841" stop-color="#B565D8"/>
<stop offset="0.945898" stop-color="#EE609C"/>
</linearGradient>
<linearGradient id="paint49_linear_613_4972" x1="203.4" y1="502.458" x2="216.606" y2="501.321" gradientUnits="userSpaceOnUse">
<stop offset="0.0756841" stop-color="#B565D8"/>
<stop offset="0.945898" stop-color="#EE609C"/>
</linearGradient>
<linearGradient id="paint50_linear_613_4972" x1="218.292" y1="510.499" x2="224.569" y2="508.465" gradientUnits="userSpaceOnUse">
<stop offset="0.0756841" stop-color="#B565D8"/>
<stop offset="0.945898" stop-color="#EE609C"/>
</linearGradient>
<linearGradient id="paint51_linear_613_4972" x1="189.311" y1="493.943" x2="206.941" y2="495.341" gradientUnits="userSpaceOnUse">
<stop offset="0.0756841" stop-color="#B565D8"/>
<stop offset="0.945898" stop-color="#EE609C"/>
</linearGradient>
<linearGradient id="paint52_linear_613_4972" x1="51.1364" y1="388.899" x2="139.201" y2="325.973" gradientUnits="userSpaceOnUse">
<stop offset="0.0756841" stop-color="#B565D8"/>
<stop offset="0.945898" stop-color="#EE609C"/>
</linearGradient>
<linearGradient id="paint53_linear_613_4972" x1="155.437" y1="141.408" x2="198.781" y2="121.762" gradientUnits="userSpaceOnUse">
<stop offset="0.0756841" stop-color="#B565D8"/>
<stop offset="0.945898" stop-color="#EE609C"/>
</linearGradient>
<linearGradient id="paint54_linear_613_4972" x1="141.507" y1="532.309" x2="149.832" y2="517.138" gradientUnits="userSpaceOnUse">
<stop offset="0.0756841" stop-color="#B565D8"/>
<stop offset="0.945898" stop-color="#EE609C"/>
</linearGradient>
<linearGradient id="paint55_linear_613_4972" x1="189.052" y1="610.498" x2="232.293" y2="531.691" gradientUnits="userSpaceOnUse">
<stop offset="0.0756841" stop-color="#B565D8"/>
<stop offset="0.945898" stop-color="#EE609C"/>
</linearGradient>
<linearGradient id="paint56_linear_613_4972" x1="56.3203" y1="311.698" x2="81.9676" y2="264.954" gradientUnits="userSpaceOnUse">
<stop offset="0.0756841" stop-color="#B565D8"/>
<stop offset="0.945898" stop-color="#EE609C"/>
</linearGradient>
<linearGradient id="paint57_linear_613_4972" x1="197.094" y1="189.473" x2="194.743" y2="202.125" gradientUnits="userSpaceOnUse">
<stop offset="0.0756841" stop-color="#B565D8"/>
<stop offset="0.945898" stop-color="#EE609C"/>
</linearGradient>
<linearGradient id="paint58_linear_613_4972" x1="655.507" y1="399.309" x2="663.832" y2="384.138" gradientUnits="userSpaceOnUse">
<stop offset="0.0756841" stop-color="#B565D8"/>
<stop offset="0.945898" stop-color="#EE609C"/>
</linearGradient>
<linearGradient id="paint59_linear_613_4972" x1="635.777" y1="384.34" x2="701.668" y2="420.598" gradientUnits="userSpaceOnUse">
<stop offset="0.0756841" stop-color="#B565D8"/>
<stop offset="0.945898" stop-color="#EE609C"/>
</linearGradient>
<linearGradient id="paint60_linear_613_4972" x1="182.654" y1="365.951" x2="198.559" y2="374.505" gradientUnits="userSpaceOnUse">
<stop offset="0.0756841" stop-color="#B565D8"/>
<stop offset="0.945898" stop-color="#EE609C"/>
</linearGradient>
<linearGradient id="paint61_linear_613_4972" x1="178.634" y1="367.296" x2="256.059" y2="385.163" gradientUnits="userSpaceOnUse">
<stop stop-color="#FFC444"/>
<stop offset="0.9964" stop-color="#F36F56"/>
</linearGradient>
<linearGradient id="paint62_linear_613_4972" x1="173.918" y1="256.61" x2="232.939" y2="357.293" gradientUnits="userSpaceOnUse">
<stop stop-color="#444B8C"/>
<stop offset="0.9964" stop-color="#26264F"/>
</linearGradient>
<linearGradient id="paint63_linear_613_4972" x1="241.095" y1="328.952" x2="365.387" y2="715.018" gradientUnits="userSpaceOnUse">
<stop stop-color="#444B8C"/>
<stop offset="0.9964" stop-color="#26264F"/>
</linearGradient>
<linearGradient id="paint64_linear_613_4972" x1="188.202" y1="506.219" x2="336.09" y2="329.152" gradientUnits="userSpaceOnUse">
<stop stop-color="#FF9085"/>
<stop offset="1" stop-color="#FB6FBB"/>
</linearGradient>
<linearGradient id="paint65_linear_613_4972" x1="406.013" y1="367.507" x2="381.669" y2="412.875" gradientUnits="userSpaceOnUse">
<stop stop-color="#444B8C"/>
<stop offset="0.9964" stop-color="#26264F"/>
</linearGradient>
<linearGradient id="paint66_linear_613_4972" x1="294.463" y1="406.511" x2="803.901" y2="188.921" gradientUnits="userSpaceOnUse">
<stop stop-color="#FFC444"/>
<stop offset="0.9964" stop-color="#F36F56"/>
</linearGradient>
<linearGradient id="paint67_linear_613_4972" x1="225.73" y1="420.478" x2="193.098" y2="466.578" gradientUnits="userSpaceOnUse">
<stop stop-color="#311944"/>
<stop offset="1" stop-color="#893976"/>
</linearGradient>
<linearGradient id="paint68_linear_613_4972" x1="191.951" y1="479.922" x2="190.013" y2="445.396" gradientUnits="userSpaceOnUse">
<stop stop-color="#311944"/>
<stop offset="1" stop-color="#893976"/>
</linearGradient>
<linearGradient id="paint69_linear_613_4972" x1="371.099" y1="435.192" x2="363.344" y2="428.545" gradientUnits="userSpaceOnUse">
<stop stop-color="#311944"/>
<stop offset="1" stop-color="#893976"/>
</linearGradient>
</defs>
</svg>
